<?xml version="1.0" encoding="UTF-8" standalone="no"?>
<svg
   viewBox="1.18 0 24 24"
   version="1.1"
   id="svg1"
   sodipodi:docname="icon-link-flatpak.svg"
   width="24"
   height="24"
   inkscape:version="1.4.2 (ebf0e940d0, 2025-05-08)"
   xmlns:inkscape="http://www.inkscape.org/namespaces/inkscape"
   xmlns:sodipodi="http://sodipodi.sourceforge.net/DTD/sodipodi-0.dtd"
   xmlns="http://www.w3.org/2000/svg"
   xmlns:svg="http://www.w3.org/2000/svg">
  <defs
     id="defs1" />
  <sodipodi:namedview
     id="namedview1"
     pagecolor="#ffffff"
     bordercolor="#000000"
     borderopacity="0.25"
     inkscape:showpageshadow="2"
     inkscape:pageopacity="0.0"
     inkscape:pagecheckerboard="true"
     inkscape:deskcolor="#d1d1d1"
     inkscape:zoom="27.458333"
     inkscape:cx="10.816388"
     inkscape:cy="12"
     inkscape:window-width="1440"
     inkscape:window-height="910"
     inkscape:window-x="0"
     inkscape:window-y="0"
     inkscape:window-maximized="1"
     inkscape:current-layer="svg1" />
  <path
     fill="#4a90d9"
     d="m 13.18,3.0236148e-4 c -0.556,0 -1.111,0.14399999852 -1.61,0.43199999852 L 3.967,4.8223024 a 3.22,3.22 0 0 0 -1.61,2.788 v 8.7799996 c 0,1.151 0.612,2.212 1.61,2.788 l 7.603,4.39 a 3.22,3.22 0 0 0 3.22,0 l 7.603,-4.39 a 3.22,3.22 0 0 0 1.61,-2.788 V 7.6103024 a 3.22,3.22 0 0 0 -1.61,-2.788 L 14.79,0.43230236 A 3.2,3.2 0 0 0 13.18,3.0236148e-4 m 0,2.35800003852 c 0.15,0 0.299,0.039 0.431,0.115 l 7.604,4.39 c 0.132,0.077 0.24,0.187 0.315,0.316 l -8.35,4.8209996 v 9.642 a 0.86,0.86 0 0 1 -0.431,-0.116 l -7.604,-4.39 a 0.87,0.87 0 0 1 -0.431,-0.746 V 7.6103024 c 0,-0.153 0.041,-0.302 0.116,-0.43 l 8.35,4.8199996 z"
     id="path1"
     style="fill:#f63800;fill-opacity:1" />
</svg>
