<?xml version="1.0" encoding="UTF-8" standalone="no"?>
<!-- Created with Inkscape (http://www.inkscape.org/) -->

<svg
   width="42.292416mm"
   height="14.436055mm"
   viewBox="0 0 42.292415 14.436055"
   version="1.1"
   id="svg1"
   inkscape:version="1.4.2 (ebf0e940d0, 2025-05-08)"
   sodipodi:docname="Logo_ESIEE.svg"
   inkscape:export-filename="Logo_ESIEE.pdf"
   inkscape:export-xdpi="96"
   inkscape:export-ydpi="96"
   xmlns:inkscape="http://www.inkscape.org/namespaces/inkscape"
   xmlns:sodipodi="http://sodipodi.sourceforge.net/DTD/sodipodi-0.dtd"
   xmlns="http://www.w3.org/2000/svg"
   xmlns:svg="http://www.w3.org/2000/svg">
  <sodipodi:namedview
     id="namedview1"
     pagecolor="#ffffff"
     bordercolor="#000000"
     borderopacity="0.25"
     inkscape:showpageshadow="false"
     inkscape:pageopacity="0.0"
     inkscape:pagecheckerboard="true"
     inkscape:deskcolor="#d1d1d1"
     inkscape:document-units="mm"
     inkscape:antialias-rendering="true"
     showborder="false"
     borderlayer="false"
     inkscape:zoom="2.1459781"
     inkscape:cx="117.19598"
     inkscape:cy="62.209395"
     inkscape:window-width="1440"
     inkscape:window-height="910"
     inkscape:window-x="0"
     inkscape:window-y="0"
     inkscape:window-maximized="1"
     inkscape:current-layer="layer1" />
  <defs
     id="defs1">
    <clipPath
       clipPathUnits="userSpaceOnUse"
       id="clipPath8">
      <path
         d="m 6882.87,0 h 1260 v 753.422 h -1260 z"
         transform="translate(0,2.5e-5)"
         id="path8" />
    </clipPath>
    <clipPath
       clipPathUnits="userSpaceOnUse"
       id="clipPath10">
      <path
         d="m 6882.87,0 h 1260 v 753.422 h -1260 z"
         transform="translate(0,2.5e-5)"
         id="path10" />
    </clipPath>
    <clipPath
       clipPathUnits="userSpaceOnUse"
       id="clipPath12">
      <path
         d="m 6882.87,0 h 1260 v 753.422 h -1260 z"
         transform="translate(0,2.5e-5)"
         id="path12" />
    </clipPath>
    <clipPath
       clipPathUnits="userSpaceOnUse"
       id="clipPath14">
      <path
         d="m 6882.87,0 h 1260 v 753.422 h -1260 z"
         transform="translate(0,2.5e-5)"
         id="path14" />
    </clipPath>
    <clipPath
       clipPathUnits="userSpaceOnUse"
       id="clipPath16">
      <path
         d="m 6882.87,0 h 1260 v 753.422 h -1260 z"
         transform="translate(0,2.5e-5)"
         id="path16" />
    </clipPath>
    <clipPath
       clipPathUnits="userSpaceOnUse"
       id="clipPath18">
      <path
         d="m 6882.87,0 h 1260 v 753.422 h -1260 z"
         transform="translate(0,2.5e-5)"
         id="path18" />
    </clipPath>
    <clipPath
       clipPathUnits="userSpaceOnUse"
       id="clipPath20">
      <path
         d="m 6882.87,0 h 1260 v 753.422 h -1260 z"
         transform="translate(0,2.5e-5)"
         id="path20" />
    </clipPath>
    <clipPath
       clipPathUnits="userSpaceOnUse"
       id="clipPath22">
      <path
         d="m 6882.87,0 h 1260 v 753.422 h -1260 z"
         transform="translate(0,2.5e-5)"
         id="path22" />
    </clipPath>
    <clipPath
       clipPathUnits="userSpaceOnUse"
       id="clipPath24">
      <path
         d="m 6882.87,0 h 1260 v 753.422 h -1260 z"
         transform="translate(0,2.5e-5)"
         id="path24" />
    </clipPath>
    <clipPath
       clipPathUnits="userSpaceOnUse"
       id="clipPath26">
      <path
         d="m 6882.87,0 h 1260 v 753.422 h -1260 z"
         transform="translate(0,2.5e-5)"
         id="path26" />
    </clipPath>
    <clipPath
       clipPathUnits="userSpaceOnUse"
       id="clipPath28">
      <path
         d="m 6882.87,0 h 1260 v 753.422 h -1260 z"
         transform="translate(0,2.5e-5)"
         id="path28" />
    </clipPath>
    <clipPath
       clipPathUnits="userSpaceOnUse"
       id="clipPath30">
      <path
         d="m 6882.87,0 h 1260 v 753.422 h -1260 z"
         transform="translate(0,2.5e-5)"
         id="path30" />
    </clipPath>
    <clipPath
       clipPathUnits="userSpaceOnUse"
       id="clipPath32">
      <path
         d="m 6882.87,0 h 1260 v 753.422 h -1260 z"
         transform="translate(0,2.5e-5)"
         id="path32" />
    </clipPath>
    <clipPath
       clipPathUnits="userSpaceOnUse"
       id="clipPath34">
      <path
         d="m 6882.87,0 h 1260 v 753.422 h -1260 z"
         transform="translate(0,2.5e-5)"
         id="path34" />
    </clipPath>
    <clipPath
       clipPathUnits="userSpaceOnUse"
       id="clipPath36">
      <path
         d="m 6882.87,0 h 1260 v 753.422 h -1260 z"
         transform="translate(0,2.5e-5)"
         id="path36" />
    </clipPath>
    <clipPath
       clipPathUnits="userSpaceOnUse"
       id="clipPath38">
      <path
         d="m 6882.87,0 h 1260 v 753.422 h -1260 z"
         transform="translate(0,2.5e-5)"
         id="path38" />
    </clipPath>
    <clipPath
       clipPathUnits="userSpaceOnUse"
       id="clipPath40">
      <path
         d="m 6882.87,0 h 1260 v 753.422 h -1260 z"
         transform="translate(0,2.5e-5)"
         id="path40" />
    </clipPath>
    <clipPath
       clipPathUnits="userSpaceOnUse"
       id="clipPath42">
      <path
         d="m 6882.87,0 h 1260 v 753.422 h -1260 z"
         transform="translate(0,2.5e-5)"
         id="path42" />
    </clipPath>
    <clipPath
       clipPathUnits="userSpaceOnUse"
       id="clipPath44">
      <path
         d="m 6882.87,0 h 1260 v 753.422 h -1260 z"
         transform="translate(0,2.5e-5)"
         id="path44" />
    </clipPath>
    <clipPath
       clipPathUnits="userSpaceOnUse"
       id="clipPath46">
      <path
         d="m 6882.87,0 h 1260 v 753.422 h -1260 z"
         transform="translate(0,2.5e-5)"
         id="path46" />
    </clipPath>
    <clipPath
       clipPathUnits="userSpaceOnUse"
       id="clipPath48">
      <path
         d="m 6882.87,0 h 1260 v 753.422 h -1260 z"
         transform="translate(0,2.5e-5)"
         id="path48" />
    </clipPath>
    <clipPath
       clipPathUnits="userSpaceOnUse"
       id="clipPath50">
      <path
         d="m 6882.87,0 h 1260 v 753.422 h -1260 z"
         transform="translate(0,2.5e-5)"
         id="path50" />
    </clipPath>
    <clipPath
       clipPathUnits="userSpaceOnUse"
       id="clipPath52">
      <path
         d="m 6882.87,0 h 1260 v 753.422 h -1260 z"
         transform="translate(0,2.5e-5)"
         id="path52" />
    </clipPath>
    <clipPath
       clipPathUnits="userSpaceOnUse"
       id="clipPath54">
      <path
         d="m 6882.87,0 h 1260 v 753.422 h -1260 z"
         transform="translate(0,2.5e-5)"
         id="path54" />
    </clipPath>
    <clipPath
       clipPathUnits="userSpaceOnUse"
       id="clipPath56">
      <path
         d="m 6882.87,0 h 1260 v 753.422 h -1260 z"
         transform="translate(0,2.5e-5)"
         id="path56" />
    </clipPath>
    <clipPath
       clipPathUnits="userSpaceOnUse"
       id="clipPath58">
      <path
         d="m 6882.87,0 h 1260 v 753.422 h -1260 z"
         transform="translate(0,2.5e-5)"
         id="path58" />
    </clipPath>
    <clipPath
       clipPathUnits="userSpaceOnUse"
       id="clipPath60">
      <path
         d="m 6882.87,0 h 1260 v 753.422 h -1260 z"
         transform="translate(0,2.5e-5)"
         id="path60" />
    </clipPath>
    <clipPath
       clipPathUnits="userSpaceOnUse"
       id="clipPath62">
      <path
         d="m 6882.87,0 h 1260 v 753.422 h -1260 z"
         transform="translate(0,2.5e-5)"
         id="path62" />
    </clipPath>
    <clipPath
       clipPathUnits="userSpaceOnUse"
       id="clipPath64">
      <path
         d="m 6882.87,0 h 1260 v 753.422 h -1260 z"
         transform="translate(0,2.5e-5)"
         id="path64" />
    </clipPath>
    <clipPath
       clipPathUnits="userSpaceOnUse"
       id="clipPath66">
      <path
         d="m 6882.87,0 h 1260 v 753.422 h -1260 z"
         transform="translate(0,2.5e-5)"
         id="path66" />
    </clipPath>
    <clipPath
       clipPathUnits="userSpaceOnUse"
       id="clipPath68">
      <path
         d="m 6882.87,0 h 1260 v 753.422 h -1260 z"
         transform="translate(0,2.5e-5)"
         id="path68" />
    </clipPath>
    <clipPath
       clipPathUnits="userSpaceOnUse"
       id="clipPath70">
      <path
         d="m 6882.87,0 h 1260 v 753.422 h -1260 z"
         transform="translate(0,2.5e-5)"
         id="path70" />
    </clipPath>
    <clipPath
       clipPathUnits="userSpaceOnUse"
       id="clipPath72">
      <path
         d="m 6882.87,0 h 1260 v 753.422 h -1260 z"
         transform="translate(0,2.5e-5)"
         id="path72" />
    </clipPath>
    <clipPath
       clipPathUnits="userSpaceOnUse"
       id="clipPath74">
      <path
         d="m 6882.87,0 h 1260 v 753.422 h -1260 z"
         transform="translate(0,2.5e-5)"
         id="path74" />
    </clipPath>
    <clipPath
       clipPathUnits="userSpaceOnUse"
       id="clipPath76">
      <path
         d="m 6882.87,0 h 1260 v 753.422 h -1260 z"
         transform="translate(0,2.5e-5)"
         id="path76" />
    </clipPath>
    <clipPath
       clipPathUnits="userSpaceOnUse"
       id="clipPath78">
      <path
         d="m 6882.87,0 h 1260 v 753.422 h -1260 z"
         transform="translate(0,2.5e-5)"
         id="path78" />
    </clipPath>
    <clipPath
       clipPathUnits="userSpaceOnUse"
       id="clipPath80">
      <path
         d="m 6882.87,0 h 1260 v 753.422 h -1260 z"
         transform="translate(0,2.5e-5)"
         id="path80" />
    </clipPath>
    <clipPath
       clipPathUnits="userSpaceOnUse"
       id="clipPath82">
      <path
         d="m 6882.87,0 h 1260 v 753.422 h -1260 z"
         transform="translate(0,2.5e-5)"
         id="path82" />
    </clipPath>
    <clipPath
       clipPathUnits="userSpaceOnUse"
       id="clipPath84">
      <path
         d="m 6882.87,0 h 1260 v 753.422 h -1260 z"
         transform="translate(0,2.5e-5)"
         id="path84" />
    </clipPath>
    <clipPath
       clipPathUnits="userSpaceOnUse"
       id="clipPath86">
      <path
         d="m 6882.87,0 h 1260 v 753.422 h -1260 z"
         transform="translate(0,2.5e-5)"
         id="path86" />
    </clipPath>
    <clipPath
       clipPathUnits="userSpaceOnUse"
       id="clipPath88">
      <path
         d="m 6882.87,0 h 1260 v 753.422 h -1260 z"
         transform="translate(0,2.5e-5)"
         id="path88" />
    </clipPath>
    <clipPath
       clipPathUnits="userSpaceOnUse"
       id="clipPath90">
      <path
         d="m 6882.87,0 h 1260 v 753.422 h -1260 z"
         transform="translate(0,2.5e-5)"
         id="path90" />
    </clipPath>
    <clipPath
       clipPathUnits="userSpaceOnUse"
       id="clipPath92">
      <path
         d="m 6882.87,0 h 1260 v 753.422 h -1260 z"
         transform="translate(0,2.5e-5)"
         id="path92" />
    </clipPath>
    <clipPath
       clipPathUnits="userSpaceOnUse"
       id="clipPath94">
      <path
         d="m 6882.87,0 h 1260 v 753.422 h -1260 z"
         transform="translate(0,2.5e-5)"
         id="path94" />
    </clipPath>
    <clipPath
       clipPathUnits="userSpaceOnUse"
       id="clipPath96">
      <path
         d="m 6882.87,0 h 1260 v 753.422 h -1260 z"
         transform="translate(0,2.5e-5)"
         id="path96" />
    </clipPath>
    <clipPath
       clipPathUnits="userSpaceOnUse"
       id="clipPath98">
      <path
         d="m 6882.87,0 h 1260 v 753.422 h -1260 z"
         transform="translate(0,2.5e-5)"
         id="path98" />
    </clipPath>
    <clipPath
       clipPathUnits="userSpaceOnUse"
       id="clipPath100">
      <path
         d="m 6882.87,0 h 1260 v 753.422 h -1260 z"
         transform="translate(0,2.5e-5)"
         id="path100" />
    </clipPath>
    <clipPath
       clipPathUnits="userSpaceOnUse"
       id="clipPath102">
      <path
         d="m 6882.87,0 h 1260 v 753.422 h -1260 z"
         transform="translate(0,2.5e-5)"
         id="path102" />
    </clipPath>
    <clipPath
       clipPathUnits="userSpaceOnUse"
       id="clipPath104">
      <path
         d="m 6882.87,0 h 1260 v 753.422 h -1260 z"
         transform="translate(0,2.5e-5)"
         id="path104" />
    </clipPath>
    <clipPath
       clipPathUnits="userSpaceOnUse"
       id="clipPath106">
      <path
         d="m 6882.87,0 h 1260 v 753.422 h -1260 z"
         transform="translate(0,2.5e-5)"
         id="path106" />
    </clipPath>
    <clipPath
       clipPathUnits="userSpaceOnUse"
       id="clipPath108">
      <path
         d="m 6882.87,0 h 1260 v 753.422 h -1260 z"
         transform="translate(0,2.5e-5)"
         id="path108" />
    </clipPath>
    <clipPath
       clipPathUnits="userSpaceOnUse"
       id="clipPath110">
      <path
         d="m 6882.87,0 h 1260 v 753.422 h -1260 z"
         transform="translate(0,2.5e-5)"
         id="path110" />
    </clipPath>
    <clipPath
       clipPathUnits="userSpaceOnUse"
       id="clipPath112">
      <path
         d="m 6882.87,0 h 1260 v 753.422 h -1260 z"
         transform="translate(0,2.5e-5)"
         id="path112" />
    </clipPath>
    <clipPath
       clipPathUnits="userSpaceOnUse"
       id="clipPath114">
      <path
         d="m 6882.87,0 h 1260 v 753.422 h -1260 z"
         transform="translate(0,2.5e-5)"
         id="path114" />
    </clipPath>
    <clipPath
       clipPathUnits="userSpaceOnUse"
       id="clipPath116">
      <path
         d="m 6882.87,0 h 1260 v 753.422 h -1260 z"
         transform="translate(0,2.5e-5)"
         id="path116" />
    </clipPath>
    <clipPath
       clipPathUnits="userSpaceOnUse"
       id="clipPath118">
      <path
         d="m 6882.87,0 h 1260 v 753.422 h -1260 z"
         transform="translate(0,2.5e-5)"
         id="path118" />
    </clipPath>
    <clipPath
       clipPathUnits="userSpaceOnUse"
       id="clipPath120">
      <path
         d="m 6882.87,0 h 1260 v 753.422 h -1260 z"
         transform="translate(0,2.5e-5)"
         id="path120" />
    </clipPath>
    <clipPath
       clipPathUnits="userSpaceOnUse"
       id="clipPath122">
      <path
         d="m 6882.87,0 h 1260 v 753.422 h -1260 z"
         transform="translate(0,2.5e-5)"
         id="path122" />
    </clipPath>
    <clipPath
       clipPathUnits="userSpaceOnUse"
       id="clipPath124">
      <path
         d="m 6882.87,0 h 1260 v 753.422 h -1260 z"
         transform="translate(0,2.5e-5)"
         id="path124" />
    </clipPath>
    <clipPath
       clipPathUnits="userSpaceOnUse"
       id="clipPath126">
      <path
         d="m 6882.87,0 h 1260 v 753.422 h -1260 z"
         transform="translate(0,2.5e-5)"
         id="path126" />
    </clipPath>
    <clipPath
       clipPathUnits="userSpaceOnUse"
       id="clipPath128">
      <path
         d="m 6882.87,0 h 1260 v 753.422 h -1260 z"
         transform="translate(0,2.5e-5)"
         id="path128" />
    </clipPath>
    <clipPath
       clipPathUnits="userSpaceOnUse"
       id="clipPath130">
      <path
         d="m 6882.87,0 h 1260 v 753.422 h -1260 z"
         transform="translate(0,2.5e-5)"
         id="path130" />
    </clipPath>
    <clipPath
       clipPathUnits="userSpaceOnUse"
       id="clipPath132">
      <path
         d="m 6882.87,0 h 1260 v 753.422 h -1260 z"
         transform="translate(0,2.5e-5)"
         id="path132" />
    </clipPath>
    <clipPath
       clipPathUnits="userSpaceOnUse"
       id="clipPath134">
      <path
         d="m 6882.87,0 h 1260 v 753.422 h -1260 z"
         transform="translate(0,2.5e-5)"
         id="path134" />
    </clipPath>
    <clipPath
       clipPathUnits="userSpaceOnUse"
       id="clipPath136">
      <path
         d="m 6882.87,0 h 1260 v 753.422 h -1260 z"
         transform="translate(0,2.5e-5)"
         id="path136" />
    </clipPath>
    <clipPath
       clipPathUnits="userSpaceOnUse"
       id="clipPath138">
      <path
         d="m 6882.87,0 h 1260 v 753.422 h -1260 z"
         transform="translate(0,2.5e-5)"
         id="path138" />
    </clipPath>
    <clipPath
       clipPathUnits="userSpaceOnUse"
       id="clipPath140">
      <path
         d="m 6882.87,0 h 1260 v 753.422 h -1260 z"
         transform="translate(0,2.5e-5)"
         id="path140" />
    </clipPath>
    <clipPath
       clipPathUnits="userSpaceOnUse"
       id="clipPath142">
      <path
         d="m 6882.87,0 h 1260 v 753.422 h -1260 z"
         transform="translate(0,2.5e-5)"
         id="path142" />
    </clipPath>
    <clipPath
       clipPathUnits="userSpaceOnUse"
       id="clipPath144">
      <path
         d="m 6882.87,0 h 1260 v 753.422 h -1260 z"
         transform="translate(0,2.5e-5)"
         id="path144" />
    </clipPath>
    <clipPath
       clipPathUnits="userSpaceOnUse"
       id="clipPath146">
      <path
         d="m 6882.87,0 h 1260 v 753.422 h -1260 z"
         transform="translate(0,2.5e-5)"
         id="path146" />
    </clipPath>
    <clipPath
       clipPathUnits="userSpaceOnUse"
       id="clipPath148">
      <path
         d="m 6882.87,0 h 1260 v 753.422 h -1260 z"
         transform="translate(0,2.5e-5)"
         id="path148" />
    </clipPath>
    <clipPath
       clipPathUnits="userSpaceOnUse"
       id="clipPath150">
      <path
         d="m 6882.87,0 h 1260 v 753.422 h -1260 z"
         transform="translate(0,2.5e-5)"
         id="path150" />
    </clipPath>
    <clipPath
       clipPathUnits="userSpaceOnUse"
       id="clipPath152">
      <path
         d="m 6882.87,0 h 1260 v 753.422 h -1260 z"
         transform="translate(0,2.5e-5)"
         id="path152" />
    </clipPath>
    <clipPath
       clipPathUnits="userSpaceOnUse"
       id="clipPath154">
      <path
         d="m 6882.87,0 h 1260 v 753.422 h -1260 z"
         transform="translate(0,2.5e-5)"
         id="path154" />
    </clipPath>
    <clipPath
       clipPathUnits="userSpaceOnUse"
       id="clipPath156">
      <path
         d="m 6882.87,0 h 1260 v 753.422 h -1260 z"
         transform="translate(0,2.5e-5)"
         id="path156" />
    </clipPath>
    <clipPath
       clipPathUnits="userSpaceOnUse"
       id="clipPath158">
      <path
         d="m 6882.87,0 h 1260 v 753.422 h -1260 z"
         transform="translate(0,2.5e-5)"
         id="path158" />
    </clipPath>
    <clipPath
       clipPathUnits="userSpaceOnUse"
       id="clipPath160">
      <path
         d="m 6882.87,0 h 1260 v 753.422 h -1260 z"
         transform="translate(0,2.5e-5)"
         id="path160" />
    </clipPath>
    <clipPath
       clipPathUnits="userSpaceOnUse"
       id="clipPath162">
      <path
         d="m 6882.87,0 h 1260 v 753.422 h -1260 z"
         transform="translate(0,2.5e-5)"
         id="path162" />
    </clipPath>
    <clipPath
       clipPathUnits="userSpaceOnUse"
       id="clipPath164">
      <path
         d="m 6882.87,0 h 1260 v 753.422 h -1260 z"
         transform="translate(0,2.5e-5)"
         id="path164" />
    </clipPath>
    <clipPath
       clipPathUnits="userSpaceOnUse"
       id="clipPath166">
      <path
         d="m 6882.87,0 h 1260 v 753.422 h -1260 z"
         transform="translate(0,2.5e-5)"
         id="path166" />
    </clipPath>
    <clipPath
       clipPathUnits="userSpaceOnUse"
       id="clipPath168">
      <path
         d="m 6882.87,0 h 1260 v 753.422 h -1260 z"
         transform="translate(0,2.5e-5)"
         id="path168" />
    </clipPath>
    <clipPath
       clipPathUnits="userSpaceOnUse"
       id="clipPath170">
      <path
         d="m 6882.87,0 h 1260 v 753.422 h -1260 z"
         transform="translate(0,2.5e-5)"
         id="path170" />
    </clipPath>
    <clipPath
       clipPathUnits="userSpaceOnUse"
       id="clipPath172">
      <path
         d="m 6882.87,0 h 1260 v 753.422 h -1260 z"
         transform="translate(0,2.5e-5)"
         id="path172" />
    </clipPath>
    <clipPath
       clipPathUnits="userSpaceOnUse"
       id="clipPath174">
      <path
         d="m 6882.87,0 h 1260 v 753.422 h -1260 z"
         transform="translate(0,2.5e-5)"
         id="path174" />
    </clipPath>
    <clipPath
       clipPathUnits="userSpaceOnUse"
       id="clipPath176">
      <path
         d="m 6882.87,0 h 1260 v 753.422 h -1260 z"
         transform="translate(0,2.5e-5)"
         id="path176" />
    </clipPath>
    <clipPath
       clipPathUnits="userSpaceOnUse"
       id="clipPath178">
      <path
         d="m 6882.87,0 h 1260 v 753.422 h -1260 z"
         transform="translate(0,2.5e-5)"
         id="path178" />
    </clipPath>
    <clipPath
       clipPathUnits="userSpaceOnUse"
       id="clipPath180">
      <path
         d="m 6882.87,0 h 1260 v 753.422 h -1260 z"
         transform="translate(0,2.5e-5)"
         id="path180" />
    </clipPath>
    <clipPath
       clipPathUnits="userSpaceOnUse"
       id="clipPath182">
      <path
         d="m 6882.87,0 h 1260 v 753.422 h -1260 z"
         transform="translate(0,2.5e-5)"
         id="path182" />
    </clipPath>
    <clipPath
       clipPathUnits="userSpaceOnUse"
       id="clipPath184">
      <path
         d="m 6882.87,0 h 1260 v 753.422 h -1260 z"
         transform="translate(0,2.5e-5)"
         id="path184" />
    </clipPath>
    <clipPath
       clipPathUnits="userSpaceOnUse"
       id="clipPath186">
      <path
         d="m 6882.87,0 h 1260 v 753.422 h -1260 z"
         transform="translate(0,2.5e-5)"
         id="path186" />
    </clipPath>
    <clipPath
       clipPathUnits="userSpaceOnUse"
       id="clipPath188">
      <path
         d="m 6882.87,0 h 1260 v 753.422 h -1260 z"
         transform="translate(0,2.5e-5)"
         id="path188" />
    </clipPath>
    <clipPath
       clipPathUnits="userSpaceOnUse"
       id="clipPath190">
      <path
         d="m 6882.87,0 h 1260 v 753.422 h -1260 z"
         transform="translate(0,2.5e-5)"
         id="path190" />
    </clipPath>
    <clipPath
       clipPathUnits="userSpaceOnUse"
       id="clipPath192">
      <path
         d="m 6882.87,0 h 1260 v 753.422 h -1260 z"
         transform="translate(0,2.5e-5)"
         id="path192" />
    </clipPath>
    <clipPath
       clipPathUnits="userSpaceOnUse"
       id="clipPath194">
      <path
         d="m 6882.87,0 h 1260 v 753.422 h -1260 z"
         transform="translate(0,2.5e-5)"
         id="path194" />
    </clipPath>
    <clipPath
       clipPathUnits="userSpaceOnUse"
       id="clipPath196">
      <path
         d="m 6882.87,0 h 1260 v 753.422 h -1260 z"
         transform="translate(0,2.5e-5)"
         id="path196" />
    </clipPath>
    <clipPath
       clipPathUnits="userSpaceOnUse"
       id="clipPath198">
      <path
         d="m 6882.87,0 h 1260 v 753.422 h -1260 z"
         transform="translate(0,2.5e-5)"
         id="path198" />
    </clipPath>
    <clipPath
       clipPathUnits="userSpaceOnUse"
       id="clipPath200">
      <path
         d="m 6882.87,0 h 1260 v 753.422 h -1260 z"
         transform="translate(0,2.5e-5)"
         id="path200" />
    </clipPath>
    <clipPath
       clipPathUnits="userSpaceOnUse"
       id="clipPath202">
      <path
         d="m 6882.87,0 h 1260 v 753.422 h -1260 z"
         transform="translate(0,2.5e-5)"
         id="path202" />
    </clipPath>
  </defs>
  <g
     inkscape:label="Layer 1"
     inkscape:groupmode="layer"
     id="layer1">
    <path
       id="path7"
       d="m 7519.39,340.59 c 3.18,-0.68 7.38,-1.129 10.79,-1.129 7.38,0 12.5,8.059 12.5,16.238 0,9.313 -5.8,17.043 -15.57,17.043 -2.61,0 -5.22,-0.351 -7.72,-1.031 z m 0,-24.078 c 0,-9.543 0,-12.383 10.67,-12.383 v -2.047 h -32.03 v 2.047 c 10.68,0 10.68,2.84 10.68,12.383 v 46.34 c 0,9.539 0,12.378 -10.68,12.378 v 2.051 h 30.67 c 17.72,0 26.7,-9.879 26.7,-21.011 0,-5.911 -3.3,-20.68 -23.4,-20.68 -4.21,0 -8.41,0.789 -12.61,1.711"
       style="fill:#2d3394;fill-opacity:1;fill-rule:nonzero;stroke:none"
       transform="matrix(0.03527778,0,0,-0.03527778,-243.75253,25.03276)"
       clip-path="url(#clipPath8)" />
    <path
       id="path9"
       d="m 7594.6,361.719 -13.06,-30.328 h 25.9 z m -14.77,-34.418 -4.54,-10.559 c -0.91,-1.933 -2.5,-5.461 -2.5,-7.613 0,-4.207 4.54,-4.668 8.75,-5.008 v -2.039 h -23.63 v 2.039 c 5.91,0.57 8.29,3.527 11.7,11.481 l 27.03,63.378 h 2.05 l 25.56,-61.332 c 2.84,-6.816 5,-13.187 13.4,-13.527 v -2.039 h -29.64 v 2.039 c 4.88,0.231 7.72,1.141 7.72,5.121 0,2.488 -1.82,6.36 -2.73,8.629 l -4.09,9.43"
       style="fill:#2d3394;fill-opacity:1;fill-rule:nonzero;stroke:none"
       transform="matrix(0.03527778,0,0,-0.03527778,-243.75253,25.03276)"
       clip-path="url(#clipPath10)" />
    <path
       id="path11"
       d="m 7673.66,340.82 h 2.5 c 10.79,0 22.15,3.86 22.15,16.469 0,9.082 -6.13,15.902 -15.34,15.902 -3.18,0 -6.24,-0.57 -9.31,-1.031 z m 33.28,-38.738 -25.56,35.098 h -7.72 v -20.668 c 0,-9.543 0,-12.391 10.68,-12.391 v -2.039 h -32.03 v 2.039 c 10.67,0 10.67,2.848 10.67,12.391 v 46.34 c 0,9.539 0,12.39 -10.67,12.39 v 2.039 h 32.6 c 22.15,0 26.12,-12.949 26.12,-19.539 0,-10.902 -8.74,-17.031 -18.63,-19.082 l 14.66,-20.449 c 5.56,-7.719 9.65,-13.289 19.99,-14.09 v -2.039"
       style="fill:#2d3394;fill-opacity:1;fill-rule:nonzero;stroke:none"
       transform="matrix(0.03527778,0,0,-0.03527778,-243.75253,25.03276)"
       clip-path="url(#clipPath12)" />
    <path
       id="path13"
       d="m 7761.46,316.512 c 0,-9.543 0,-12.383 10.68,-12.383 v -2.047 h -32.03 v 2.047 c 10.68,0 10.68,2.84 10.68,12.383 v 46.347 c 0,9.532 0,12.383 -10.68,12.383 v 2.039 h 32.03 v -2.039 c -10.68,0 -10.68,-2.851 -10.68,-12.383"
       style="fill:#2d3394;fill-opacity:1;fill-rule:nonzero;stroke:none"
       transform="matrix(0.03527778,0,0,-0.03527778,-243.75253,25.03276)"
       clip-path="url(#clipPath14)" />
    <path
       id="path15"
       d="m 7838.71,352.969 h -2.05 c -0.8,11.933 -8.52,21.582 -21.01,21.582 -6.48,0 -13.07,-4.879 -13.07,-11.699 0,-15.793 41.12,-18.512 41.12,-40.782 0,-11.808 -9.31,-21.691 -23.73,-21.691 -5.23,0 -8.98,1.019 -11.93,2.16 -3.07,1.02 -5.34,2.043 -8.07,2.043 -2.61,0 -3.18,-1.934 -3.41,-4.203 h -2.04 v 25.781 h 2.04 c 1.7,-18.168 15.56,-21.351 22.27,-21.351 7.61,0 14.99,3.98 14.99,12.273 0,17.258 -39.98,19.309 -39.98,41.797 0,11.59 10.45,20.101 22.26,20.101 4.09,0 7.5,-1.019 10.22,-2.148 2.84,-1.031 5.01,-2.16 6.48,-2.16 2.72,0 3.4,2.039 3.86,4.308 h 2.05"
       style="fill:#2d3394;fill-opacity:1;fill-rule:nonzero;stroke:none"
       transform="matrix(0.03527778,0,0,-0.03527778,-243.75253,25.03276)"
       clip-path="url(#clipPath16)" />
    <path
       id="path17"
       d="M 7852.96,407.391 H 7490.75"
       style="fill:#2d3394;fill-opacity:1;fill-rule:nonzero;stroke:none"
       transform="matrix(0.03527778,0,0,-0.03527778,-243.75253,25.03276)"
       clip-path="url(#clipPath18)" />
    <path
       id="path19"
       d="m 7490.75,405.832 h 362.211 v 3.10938 H 7490.75 Z"
       style="fill:#2d3394;fill-opacity:1;fill-rule:nonzero;stroke:none"
       transform="matrix(0.03527778,0,0,-0.03527778,-243.75253,25.03276)"
       clip-path="url(#clipPath20)" />
    <path
       id="path21"
       d="m 7411.69,690.48 h -101.71 c -7.74,0 -13.09,-2.351 -13.09,-11.871 V 601.84 h 82.13 l 12.44,-33.238 h -94.57 v -79.141 c 0,-11.898 7.14,-17.852 20.21,-17.852 h 101.73 V 452.602 H 7284.4 c -25.58,0 -41.04,11.89 -41.04,45.199 v 158.808 c 0,25.563 3.56,52.942 46.41,52.942 h 121.92"
       style="fill:#2d3394;fill-opacity:1;fill-rule:nonzero;stroke:none"
       transform="matrix(0.03527778,0,0,-0.03527778,-243.75253,25.03276)"
       clip-path="url(#clipPath22)" />
    <path
       id="path23"
       d="m 8101.23,690.48 h -101.72 c -7.73,0 -13.09,-2.351 -13.09,-11.871 V 601.84 h 82.14 l 12.43,-33.238 h -94.57 v -79.141 c 0,-11.898 7.14,-17.852 20.22,-17.852 h 101.72 v -19.007 h -134.43 c -25.58,0 -41.04,11.89 -41.04,41.05 v 158.809 c 0,29.711 3.57,57.09 46.41,57.09 h 121.93"
       style="fill:#2d3394;fill-opacity:1;fill-rule:nonzero;stroke:none"
       transform="matrix(0.03527778,0,0,-0.03527778,-243.75253,25.03276)"
       clip-path="url(#clipPath24)" />
    <path
       id="path25"
       d="m 7434.26,475.789 c 17.25,-2.398 35.7,-4.18 52.35,-4.18 26.18,0 55.92,7.141 55.92,39.27 0,54.113 -114.79,52.934 -114.79,125.492 0,57.699 50.56,73.18 88.62,73.18 23.78,0 44,-2.399 58.27,-4.172 v -17.84 c -11.28,1.18 -21.39,2.941 -33.29,2.941 -26.76,0 -63.65,1.2 -63.65,-35.671 0,-48.778 118.37,-46.379 118.37,-129.668 0,-50.539 -41.04,-72.539 -88.62,-72.539 -26.78,0 -49.36,0.57 -73.18,6.519"
       style="fill:#2d3394;fill-opacity:1;fill-rule:nonzero;stroke:none"
       transform="matrix(0.03527778,0,0,-0.03527778,-243.75253,25.03276)"
       clip-path="url(#clipPath26)" />
    <path
       id="path27"
       d="M 7635.32,705.82 V 452.602 h 53.5 v 215.929 z"
       style="fill:#2d3394;fill-opacity:1;fill-rule:nonzero;stroke:none"
       transform="matrix(0.03527778,0,0,-0.03527778,-243.75253,25.03276)"
       clip-path="url(#clipPath28)" />
    <path
       id="path29"
       d="m 7810.73,471.609 c -13.07,0 -20.21,5.954 -20.21,17.852 v 79.141 h 93.97 l -12.43,33.238 h -81.54 v 76.769 c 0,9.52 5.35,11.871 13.09,11.871 h 101.72 v 19.071 H 7783.4 c -42.85,0 -46.41,-27.379 -46.41,-52.942 v -42.07 l 39.31,-26.777 -39.31,-25.582 v -64.391 c 0,-33.297 15.46,-45.187 41.04,-45.187 h 126.75 v 19.007"
       style="fill:#2d3394;fill-opacity:1;fill-rule:nonzero;stroke:none"
       transform="matrix(0.03527778,0,0,-0.03527778,-243.75253,25.03276)"
       clip-path="url(#clipPath30)" />
    <path
       id="path31"
       d="m 7085.83,494.809 c -13.98,9.621 -30.35,14.703 -47.34,14.703 -22.55,0 -43.53,-8.36 -59.07,-23.563 -8.36,-8.168 -14.75,-17.898 -18.98,-28.91 l -1.69,-4.398 h 36.34 l 0.96,1.48 c 1.9,2.93 4.12,5.649 6.59,8.059 9.3,9.09 22.04,14.101 35.85,14.101 16.75,0 32.38,-8.301 41.83,-22.222 l 0.96,-1.418 h 36.67 l -1.8,4.461 c -6.19,15.277 -16.67,28.32 -30.32,37.707"
       style="fill:#2d3394;fill-opacity:1;fill-rule:nonzero;stroke:none"
       transform="matrix(0.03527778,0,0,-0.03527778,-243.75253,25.03276)"
       clip-path="url(#clipPath32)" />
    <path
       id="path33"
       d="m 6942.83,640.012 c -8.17,8.359 -17.9,14.738 -28.91,18.98 l -4.4,1.68 v -36.34 l 1.48,-0.961 c 2.94,-1.891 5.65,-4.109 8.06,-6.582 9.09,-9.309 14.1,-22.039 14.1,-35.859 0,-16.739 -8.31,-32.379 -22.22,-41.821 l -1.42,-0.961 v -36.679 l 4.45,1.801 c 15.29,6.191 28.34,16.679 37.72,30.32 9.62,13.98 14.7,30.351 14.7,47.34 0,22.55 -8.37,43.531 -23.56,59.082"
       style="fill:#2d3394;fill-opacity:1;fill-rule:nonzero;stroke:none"
       transform="matrix(0.03527778,0,0,-0.03527778,-243.75253,25.03276)"
       clip-path="url(#clipPath34)" />
    <path
       id="path35"
       d="m 6991.3,667.422 c 13.98,-9.609 30.35,-14.692 47.34,-14.692 22.55,0 43.53,8.36 59.08,23.559 8.36,8.172 14.74,17.891 18.97,28.91 l 1.69,4.391 h -36.34 l -0.96,-1.469 c -1.9,-2.941 -4.12,-5.652 -6.59,-8.062 -9.3,-9.098 -22.03,-14.098 -35.85,-14.098 -16.74,0 -32.38,8.301 -41.82,22.219 l -0.96,1.41 h -36.68 l 1.8,-4.449 c 6.19,-15.282 16.68,-28.332 30.32,-37.719"
       style="fill:#2d3394;fill-opacity:1;fill-rule:nonzero;stroke:none"
       transform="matrix(0.03527778,0,0,-0.03527778,-243.75253,25.03276)"
       clip-path="url(#clipPath36)" />
    <path
       id="path37"
       d="m 7166.19,623.129 1.42,0.961 v 36.68 l -4.45,-1.809 c -15.29,-6.191 -28.33,-16.672 -37.72,-30.32 -9.61,-13.981 -14.7,-30.352 -14.7,-47.34 0,-22.539 8.37,-43.531 23.56,-59.071 8.17,-8.359 17.9,-14.75 28.92,-18.98 l 4.39,-1.68 v 36.332 l -1.48,0.957 c -2.93,1.903 -5.64,4.121 -8.06,6.59 -9.09,9.313 -14.1,22.043 -14.1,35.852 0,16.75 8.31,32.379 22.22,41.828"
       style="fill:#2d3394;fill-opacity:1;fill-rule:nonzero;stroke:none"
       transform="matrix(0.03527778,0,0,-0.03527778,-243.75253,25.03276)"
       clip-path="url(#clipPath38)" />
    <path
       id="path39"
       d="m 7071.45,580.84 c 0,-18.348 -14.88,-33.231 -33.23,-33.231 -18.35,0 -33.23,14.883 -33.23,33.231 0,18.351 14.88,33.23 33.23,33.23 18.35,0 33.23,-14.879 33.23,-33.23"
       style="fill:#2d3394;fill-opacity:1;fill-rule:nonzero;stroke:none"
       transform="matrix(0.03527778,0,0,-0.03527778,-243.75253,25.03276)"
       clip-path="url(#clipPath40)" />
  </g>
</svg>
