<?xml version="1.0" encoding="UTF-8" standalone="no"?>
<!-- Created with Inkscape (http://www.inkscape.org/) -->

<svg
   width="42.340038mm"
   height="24.427666mm"
   viewBox="0 0 42.340038 24.427666"
   version="1.1"
   id="svg1"
   inkscape:version="1.4.2 (ebf0e940d0, 2025-05-08)"
   sodipodi:docname="Triple-logo_ESIEE_CCI_UGE.svg"
   xmlns:inkscape="http://www.inkscape.org/namespaces/inkscape"
   xmlns:sodipodi="http://sodipodi.sourceforge.net/DTD/sodipodi-0.dtd"
   xmlns="http://www.w3.org/2000/svg"
   xmlns:svg="http://www.w3.org/2000/svg">
  <sodipodi:namedview
     id="namedview1"
     pagecolor="#ffffff"
     bordercolor="#000000"
     borderopacity="0.25"
     inkscape:showpageshadow="false"
     inkscape:pageopacity="0.0"
     inkscape:pagecheckerboard="true"
     inkscape:deskcolor="#d1d1d1"
     inkscape:document-units="mm"
     inkscape:antialias-rendering="true"
     showborder="false"
     borderlayer="false"
     inkscape:zoom="2.1459781"
     inkscape:cx="116.96298"
     inkscape:cy="62.209394"
     inkscape:window-width="1440"
     inkscape:window-height="910"
     inkscape:window-x="0"
     inkscape:window-y="0"
     inkscape:window-maximized="1"
     inkscape:current-layer="layer1" />
  <defs
     id="defs1">
    <clipPath
       clipPathUnits="userSpaceOnUse"
       id="clipPath8">
      <path
         d="m 6882.87,0 h 1260 v 753.422 h -1260 z"
         transform="translate(0,2.5e-5)"
         id="path8" />
    </clipPath>
    <clipPath
       clipPathUnits="userSpaceOnUse"
       id="clipPath10">
      <path
         d="m 6882.87,0 h 1260 v 753.422 h -1260 z"
         transform="translate(0,2.5e-5)"
         id="path10" />
    </clipPath>
    <clipPath
       clipPathUnits="userSpaceOnUse"
       id="clipPath12">
      <path
         d="m 6882.87,0 h 1260 v 753.422 h -1260 z"
         transform="translate(0,2.5e-5)"
         id="path12" />
    </clipPath>
    <clipPath
       clipPathUnits="userSpaceOnUse"
       id="clipPath14">
      <path
         d="m 6882.87,0 h 1260 v 753.422 h -1260 z"
         transform="translate(0,2.5e-5)"
         id="path14" />
    </clipPath>
    <clipPath
       clipPathUnits="userSpaceOnUse"
       id="clipPath16">
      <path
         d="m 6882.87,0 h 1260 v 753.422 h -1260 z"
         transform="translate(0,2.5e-5)"
         id="path16" />
    </clipPath>
    <clipPath
       clipPathUnits="userSpaceOnUse"
       id="clipPath18">
      <path
         d="m 6882.87,0 h 1260 v 753.422 h -1260 z"
         transform="translate(0,2.5e-5)"
         id="path18" />
    </clipPath>
    <clipPath
       clipPathUnits="userSpaceOnUse"
       id="clipPath20">
      <path
         d="m 6882.87,0 h 1260 v 753.422 h -1260 z"
         transform="translate(0,2.5e-5)"
         id="path20" />
    </clipPath>
    <clipPath
       clipPathUnits="userSpaceOnUse"
       id="clipPath22">
      <path
         d="m 6882.87,0 h 1260 v 753.422 h -1260 z"
         transform="translate(0,2.5e-5)"
         id="path22" />
    </clipPath>
    <clipPath
       clipPathUnits="userSpaceOnUse"
       id="clipPath24">
      <path
         d="m 6882.87,0 h 1260 v 753.422 h -1260 z"
         transform="translate(0,2.5e-5)"
         id="path24" />
    </clipPath>
    <clipPath
       clipPathUnits="userSpaceOnUse"
       id="clipPath26">
      <path
         d="m 6882.87,0 h 1260 v 753.422 h -1260 z"
         transform="translate(0,2.5e-5)"
         id="path26" />
    </clipPath>
    <clipPath
       clipPathUnits="userSpaceOnUse"
       id="clipPath28">
      <path
         d="m 6882.87,0 h 1260 v 753.422 h -1260 z"
         transform="translate(0,2.5e-5)"
         id="path28" />
    </clipPath>
    <clipPath
       clipPathUnits="userSpaceOnUse"
       id="clipPath30">
      <path
         d="m 6882.87,0 h 1260 v 753.422 h -1260 z"
         transform="translate(0,2.5e-5)"
         id="path30" />
    </clipPath>
    <clipPath
       clipPathUnits="userSpaceOnUse"
       id="clipPath32">
      <path
         d="m 6882.87,0 h 1260 v 753.422 h -1260 z"
         transform="translate(0,2.5e-5)"
         id="path32" />
    </clipPath>
    <clipPath
       clipPathUnits="userSpaceOnUse"
       id="clipPath34">
      <path
         d="m 6882.87,0 h 1260 v 753.422 h -1260 z"
         transform="translate(0,2.5e-5)"
         id="path34" />
    </clipPath>
    <clipPath
       clipPathUnits="userSpaceOnUse"
       id="clipPath36">
      <path
         d="m 6882.87,0 h 1260 v 753.422 h -1260 z"
         transform="translate(0,2.5e-5)"
         id="path36" />
    </clipPath>
    <clipPath
       clipPathUnits="userSpaceOnUse"
       id="clipPath38">
      <path
         d="m 6882.87,0 h 1260 v 753.422 h -1260 z"
         transform="translate(0,2.5e-5)"
         id="path38" />
    </clipPath>
    <clipPath
       clipPathUnits="userSpaceOnUse"
       id="clipPath40">
      <path
         d="m 6882.87,0 h 1260 v 753.422 h -1260 z"
         transform="translate(0,2.5e-5)"
         id="path40" />
    </clipPath>
    <clipPath
       clipPathUnits="userSpaceOnUse"
       id="clipPath42">
      <path
         d="m 6882.87,0 h 1260 v 753.422 h -1260 z"
         transform="translate(0,2.5e-5)"
         id="path42" />
    </clipPath>
    <clipPath
       clipPathUnits="userSpaceOnUse"
       id="clipPath44">
      <path
         d="m 6882.87,0 h 1260 v 753.422 h -1260 z"
         transform="translate(0,2.5e-5)"
         id="path44" />
    </clipPath>
    <clipPath
       clipPathUnits="userSpaceOnUse"
       id="clipPath46">
      <path
         d="m 6882.87,0 h 1260 v 753.422 h -1260 z"
         transform="translate(0,2.5e-5)"
         id="path46" />
    </clipPath>
    <clipPath
       clipPathUnits="userSpaceOnUse"
       id="clipPath48">
      <path
         d="m 6882.87,0 h 1260 v 753.422 h -1260 z"
         transform="translate(0,2.5e-5)"
         id="path48" />
    </clipPath>
    <clipPath
       clipPathUnits="userSpaceOnUse"
       id="clipPath50">
      <path
         d="m 6882.87,0 h 1260 v 753.422 h -1260 z"
         transform="translate(0,2.5e-5)"
         id="path50" />
    </clipPath>
    <clipPath
       clipPathUnits="userSpaceOnUse"
       id="clipPath52">
      <path
         d="m 6882.87,0 h 1260 v 753.422 h -1260 z"
         transform="translate(0,2.5e-5)"
         id="path52" />
    </clipPath>
    <clipPath
       clipPathUnits="userSpaceOnUse"
       id="clipPath54">
      <path
         d="m 6882.87,0 h 1260 v 753.422 h -1260 z"
         transform="translate(0,2.5e-5)"
         id="path54" />
    </clipPath>
    <clipPath
       clipPathUnits="userSpaceOnUse"
       id="clipPath56">
      <path
         d="m 6882.87,0 h 1260 v 753.422 h -1260 z"
         transform="translate(0,2.5e-5)"
         id="path56" />
    </clipPath>
    <clipPath
       clipPathUnits="userSpaceOnUse"
       id="clipPath58">
      <path
         d="m 6882.87,0 h 1260 v 753.422 h -1260 z"
         transform="translate(0,2.5e-5)"
         id="path58" />
    </clipPath>
    <clipPath
       clipPathUnits="userSpaceOnUse"
       id="clipPath60">
      <path
         d="m 6882.87,0 h 1260 v 753.422 h -1260 z"
         transform="translate(0,2.5e-5)"
         id="path60" />
    </clipPath>
    <clipPath
       clipPathUnits="userSpaceOnUse"
       id="clipPath62">
      <path
         d="m 6882.87,0 h 1260 v 753.422 h -1260 z"
         transform="translate(0,2.5e-5)"
         id="path62" />
    </clipPath>
    <clipPath
       clipPathUnits="userSpaceOnUse"
       id="clipPath64">
      <path
         d="m 6882.87,0 h 1260 v 753.422 h -1260 z"
         transform="translate(0,2.5e-5)"
         id="path64" />
    </clipPath>
    <clipPath
       clipPathUnits="userSpaceOnUse"
       id="clipPath66">
      <path
         d="m 6882.87,0 h 1260 v 753.422 h -1260 z"
         transform="translate(0,2.5e-5)"
         id="path66" />
    </clipPath>
    <clipPath
       clipPathUnits="userSpaceOnUse"
       id="clipPath68">
      <path
         d="m 6882.87,0 h 1260 v 753.422 h -1260 z"
         transform="translate(0,2.5e-5)"
         id="path68" />
    </clipPath>
    <clipPath
       clipPathUnits="userSpaceOnUse"
       id="clipPath70">
      <path
         d="m 6882.87,0 h 1260 v 753.422 h -1260 z"
         transform="translate(0,2.5e-5)"
         id="path70" />
    </clipPath>
    <clipPath
       clipPathUnits="userSpaceOnUse"
       id="clipPath72">
      <path
         d="m 6882.87,0 h 1260 v 753.422 h -1260 z"
         transform="translate(0,2.5e-5)"
         id="path72" />
    </clipPath>
    <clipPath
       clipPathUnits="userSpaceOnUse"
       id="clipPath74">
      <path
         d="m 6882.87,0 h 1260 v 753.422 h -1260 z"
         transform="translate(0,2.5e-5)"
         id="path74" />
    </clipPath>
    <clipPath
       clipPathUnits="userSpaceOnUse"
       id="clipPath76">
      <path
         d="m 6882.87,0 h 1260 v 753.422 h -1260 z"
         transform="translate(0,2.5e-5)"
         id="path76" />
    </clipPath>
    <clipPath
       clipPathUnits="userSpaceOnUse"
       id="clipPath78">
      <path
         d="m 6882.87,0 h 1260 v 753.422 h -1260 z"
         transform="translate(0,2.5e-5)"
         id="path78" />
    </clipPath>
    <clipPath
       clipPathUnits="userSpaceOnUse"
       id="clipPath80">
      <path
         d="m 6882.87,0 h 1260 v 753.422 h -1260 z"
         transform="translate(0,2.5e-5)"
         id="path80" />
    </clipPath>
    <clipPath
       clipPathUnits="userSpaceOnUse"
       id="clipPath82">
      <path
         d="m 6882.87,0 h 1260 v 753.422 h -1260 z"
         transform="translate(0,2.5e-5)"
         id="path82" />
    </clipPath>
    <clipPath
       clipPathUnits="userSpaceOnUse"
       id="clipPath84">
      <path
         d="m 6882.87,0 h 1260 v 753.422 h -1260 z"
         transform="translate(0,2.5e-5)"
         id="path84" />
    </clipPath>
    <clipPath
       clipPathUnits="userSpaceOnUse"
       id="clipPath86">
      <path
         d="m 6882.87,0 h 1260 v 753.422 h -1260 z"
         transform="translate(0,2.5e-5)"
         id="path86" />
    </clipPath>
    <clipPath
       clipPathUnits="userSpaceOnUse"
       id="clipPath88">
      <path
         d="m 6882.87,0 h 1260 v 753.422 h -1260 z"
         transform="translate(0,2.5e-5)"
         id="path88" />
    </clipPath>
    <clipPath
       clipPathUnits="userSpaceOnUse"
       id="clipPath90">
      <path
         d="m 6882.87,0 h 1260 v 753.422 h -1260 z"
         transform="translate(0,2.5e-5)"
         id="path90" />
    </clipPath>
    <clipPath
       clipPathUnits="userSpaceOnUse"
       id="clipPath92">
      <path
         d="m 6882.87,0 h 1260 v 753.422 h -1260 z"
         transform="translate(0,2.5e-5)"
         id="path92" />
    </clipPath>
    <clipPath
       clipPathUnits="userSpaceOnUse"
       id="clipPath94">
      <path
         d="m 6882.87,0 h 1260 v 753.422 h -1260 z"
         transform="translate(0,2.5e-5)"
         id="path94" />
    </clipPath>
    <clipPath
       clipPathUnits="userSpaceOnUse"
       id="clipPath96">
      <path
         d="m 6882.87,0 h 1260 v 753.422 h -1260 z"
         transform="translate(0,2.5e-5)"
         id="path96" />
    </clipPath>
    <clipPath
       clipPathUnits="userSpaceOnUse"
       id="clipPath98">
      <path
         d="m 6882.87,0 h 1260 v 753.422 h -1260 z"
         transform="translate(0,2.5e-5)"
         id="path98" />
    </clipPath>
    <clipPath
       clipPathUnits="userSpaceOnUse"
       id="clipPath100">
      <path
         d="m 6882.87,0 h 1260 v 753.422 h -1260 z"
         transform="translate(0,2.5e-5)"
         id="path100" />
    </clipPath>
    <clipPath
       clipPathUnits="userSpaceOnUse"
       id="clipPath102">
      <path
         d="m 6882.87,0 h 1260 v 753.422 h -1260 z"
         transform="translate(0,2.5e-5)"
         id="path102" />
    </clipPath>
    <clipPath
       clipPathUnits="userSpaceOnUse"
       id="clipPath104">
      <path
         d="m 6882.87,0 h 1260 v 753.422 h -1260 z"
         transform="translate(0,2.5e-5)"
         id="path104" />
    </clipPath>
    <clipPath
       clipPathUnits="userSpaceOnUse"
       id="clipPath106">
      <path
         d="m 6882.87,0 h 1260 v 753.422 h -1260 z"
         transform="translate(0,2.5e-5)"
         id="path106" />
    </clipPath>
    <clipPath
       clipPathUnits="userSpaceOnUse"
       id="clipPath108">
      <path
         d="m 6882.87,0 h 1260 v 753.422 h -1260 z"
         transform="translate(0,2.5e-5)"
         id="path108" />
    </clipPath>
    <clipPath
       clipPathUnits="userSpaceOnUse"
       id="clipPath110">
      <path
         d="m 6882.87,0 h 1260 v 753.422 h -1260 z"
         transform="translate(0,2.5e-5)"
         id="path110" />
    </clipPath>
    <clipPath
       clipPathUnits="userSpaceOnUse"
       id="clipPath112">
      <path
         d="m 6882.87,0 h 1260 v 753.422 h -1260 z"
         transform="translate(0,2.5e-5)"
         id="path112" />
    </clipPath>
    <clipPath
       clipPathUnits="userSpaceOnUse"
       id="clipPath114">
      <path
         d="m 6882.87,0 h 1260 v 753.422 h -1260 z"
         transform="translate(0,2.5e-5)"
         id="path114" />
    </clipPath>
    <clipPath
       clipPathUnits="userSpaceOnUse"
       id="clipPath116">
      <path
         d="m 6882.87,0 h 1260 v 753.422 h -1260 z"
         transform="translate(0,2.5e-5)"
         id="path116" />
    </clipPath>
    <clipPath
       clipPathUnits="userSpaceOnUse"
       id="clipPath118">
      <path
         d="m 6882.87,0 h 1260 v 753.422 h -1260 z"
         transform="translate(0,2.5e-5)"
         id="path118" />
    </clipPath>
    <clipPath
       clipPathUnits="userSpaceOnUse"
       id="clipPath120">
      <path
         d="m 6882.87,0 h 1260 v 753.422 h -1260 z"
         transform="translate(0,2.5e-5)"
         id="path120" />
    </clipPath>
    <clipPath
       clipPathUnits="userSpaceOnUse"
       id="clipPath122">
      <path
         d="m 6882.87,0 h 1260 v 753.422 h -1260 z"
         transform="translate(0,2.5e-5)"
         id="path122" />
    </clipPath>
    <clipPath
       clipPathUnits="userSpaceOnUse"
       id="clipPath124">
      <path
         d="m 6882.87,0 h 1260 v 753.422 h -1260 z"
         transform="translate(0,2.5e-5)"
         id="path124" />
    </clipPath>
    <clipPath
       clipPathUnits="userSpaceOnUse"
       id="clipPath126">
      <path
         d="m 6882.87,0 h 1260 v 753.422 h -1260 z"
         transform="translate(0,2.5e-5)"
         id="path126" />
    </clipPath>
    <clipPath
       clipPathUnits="userSpaceOnUse"
       id="clipPath128">
      <path
         d="m 6882.87,0 h 1260 v 753.422 h -1260 z"
         transform="translate(0,2.5e-5)"
         id="path128" />
    </clipPath>
    <clipPath
       clipPathUnits="userSpaceOnUse"
       id="clipPath130">
      <path
         d="m 6882.87,0 h 1260 v 753.422 h -1260 z"
         transform="translate(0,2.5e-5)"
         id="path130" />
    </clipPath>
    <clipPath
       clipPathUnits="userSpaceOnUse"
       id="clipPath132">
      <path
         d="m 6882.87,0 h 1260 v 753.422 h -1260 z"
         transform="translate(0,2.5e-5)"
         id="path132" />
    </clipPath>
    <clipPath
       clipPathUnits="userSpaceOnUse"
       id="clipPath134">
      <path
         d="m 6882.87,0 h 1260 v 753.422 h -1260 z"
         transform="translate(0,2.5e-5)"
         id="path134" />
    </clipPath>
    <clipPath
       clipPathUnits="userSpaceOnUse"
       id="clipPath136">
      <path
         d="m 6882.87,0 h 1260 v 753.422 h -1260 z"
         transform="translate(0,2.5e-5)"
         id="path136" />
    </clipPath>
    <clipPath
       clipPathUnits="userSpaceOnUse"
       id="clipPath138">
      <path
         d="m 6882.87,0 h 1260 v 753.422 h -1260 z"
         transform="translate(0,2.5e-5)"
         id="path138" />
    </clipPath>
    <clipPath
       clipPathUnits="userSpaceOnUse"
       id="clipPath140">
      <path
         d="m 6882.87,0 h 1260 v 753.422 h -1260 z"
         transform="translate(0,2.5e-5)"
         id="path140" />
    </clipPath>
    <clipPath
       clipPathUnits="userSpaceOnUse"
       id="clipPath142">
      <path
         d="m 6882.87,0 h 1260 v 753.422 h -1260 z"
         transform="translate(0,2.5e-5)"
         id="path142" />
    </clipPath>
    <clipPath
       clipPathUnits="userSpaceOnUse"
       id="clipPath144">
      <path
         d="m 6882.87,0 h 1260 v 753.422 h -1260 z"
         transform="translate(0,2.5e-5)"
         id="path144" />
    </clipPath>
    <clipPath
       clipPathUnits="userSpaceOnUse"
       id="clipPath146">
      <path
         d="m 6882.87,0 h 1260 v 753.422 h -1260 z"
         transform="translate(0,2.5e-5)"
         id="path146" />
    </clipPath>
    <clipPath
       clipPathUnits="userSpaceOnUse"
       id="clipPath148">
      <path
         d="m 6882.87,0 h 1260 v 753.422 h -1260 z"
         transform="translate(0,2.5e-5)"
         id="path148" />
    </clipPath>
    <clipPath
       clipPathUnits="userSpaceOnUse"
       id="clipPath150">
      <path
         d="m 6882.87,0 h 1260 v 753.422 h -1260 z"
         transform="translate(0,2.5e-5)"
         id="path150" />
    </clipPath>
    <clipPath
       clipPathUnits="userSpaceOnUse"
       id="clipPath152">
      <path
         d="m 6882.87,0 h 1260 v 753.422 h -1260 z"
         transform="translate(0,2.5e-5)"
         id="path152" />
    </clipPath>
    <clipPath
       clipPathUnits="userSpaceOnUse"
       id="clipPath154">
      <path
         d="m 6882.87,0 h 1260 v 753.422 h -1260 z"
         transform="translate(0,2.5e-5)"
         id="path154" />
    </clipPath>
    <clipPath
       clipPathUnits="userSpaceOnUse"
       id="clipPath156">
      <path
         d="m 6882.87,0 h 1260 v 753.422 h -1260 z"
         transform="translate(0,2.5e-5)"
         id="path156" />
    </clipPath>
    <clipPath
       clipPathUnits="userSpaceOnUse"
       id="clipPath158">
      <path
         d="m 6882.87,0 h 1260 v 753.422 h -1260 z"
         transform="translate(0,2.5e-5)"
         id="path158" />
    </clipPath>
    <clipPath
       clipPathUnits="userSpaceOnUse"
       id="clipPath160">
      <path
         d="m 6882.87,0 h 1260 v 753.422 h -1260 z"
         transform="translate(0,2.5e-5)"
         id="path160" />
    </clipPath>
    <clipPath
       clipPathUnits="userSpaceOnUse"
       id="clipPath162">
      <path
         d="m 6882.87,0 h 1260 v 753.422 h -1260 z"
         transform="translate(0,2.5e-5)"
         id="path162" />
    </clipPath>
    <clipPath
       clipPathUnits="userSpaceOnUse"
       id="clipPath164">
      <path
         d="m 6882.87,0 h 1260 v 753.422 h -1260 z"
         transform="translate(0,2.5e-5)"
         id="path164" />
    </clipPath>
    <clipPath
       clipPathUnits="userSpaceOnUse"
       id="clipPath166">
      <path
         d="m 6882.87,0 h 1260 v 753.422 h -1260 z"
         transform="translate(0,2.5e-5)"
         id="path166" />
    </clipPath>
    <clipPath
       clipPathUnits="userSpaceOnUse"
       id="clipPath168">
      <path
         d="m 6882.87,0 h 1260 v 753.422 h -1260 z"
         transform="translate(0,2.5e-5)"
         id="path168" />
    </clipPath>
    <clipPath
       clipPathUnits="userSpaceOnUse"
       id="clipPath170">
      <path
         d="m 6882.87,0 h 1260 v 753.422 h -1260 z"
         transform="translate(0,2.5e-5)"
         id="path170" />
    </clipPath>
    <clipPath
       clipPathUnits="userSpaceOnUse"
       id="clipPath172">
      <path
         d="m 6882.87,0 h 1260 v 753.422 h -1260 z"
         transform="translate(0,2.5e-5)"
         id="path172" />
    </clipPath>
    <clipPath
       clipPathUnits="userSpaceOnUse"
       id="clipPath174">
      <path
         d="m 6882.87,0 h 1260 v 753.422 h -1260 z"
         transform="translate(0,2.5e-5)"
         id="path174" />
    </clipPath>
    <clipPath
       clipPathUnits="userSpaceOnUse"
       id="clipPath176">
      <path
         d="m 6882.87,0 h 1260 v 753.422 h -1260 z"
         transform="translate(0,2.5e-5)"
         id="path176" />
    </clipPath>
    <clipPath
       clipPathUnits="userSpaceOnUse"
       id="clipPath178">
      <path
         d="m 6882.87,0 h 1260 v 753.422 h -1260 z"
         transform="translate(0,2.5e-5)"
         id="path178" />
    </clipPath>
    <clipPath
       clipPathUnits="userSpaceOnUse"
       id="clipPath180">
      <path
         d="m 6882.87,0 h 1260 v 753.422 h -1260 z"
         transform="translate(0,2.5e-5)"
         id="path180" />
    </clipPath>
    <clipPath
       clipPathUnits="userSpaceOnUse"
       id="clipPath182">
      <path
         d="m 6882.87,0 h 1260 v 753.422 h -1260 z"
         transform="translate(0,2.5e-5)"
         id="path182" />
    </clipPath>
    <clipPath
       clipPathUnits="userSpaceOnUse"
       id="clipPath184">
      <path
         d="m 6882.87,0 h 1260 v 753.422 h -1260 z"
         transform="translate(0,2.5e-5)"
         id="path184" />
    </clipPath>
    <clipPath
       clipPathUnits="userSpaceOnUse"
       id="clipPath186">
      <path
         d="m 6882.87,0 h 1260 v 753.422 h -1260 z"
         transform="translate(0,2.5e-5)"
         id="path186" />
    </clipPath>
    <clipPath
       clipPathUnits="userSpaceOnUse"
       id="clipPath188">
      <path
         d="m 6882.87,0 h 1260 v 753.422 h -1260 z"
         transform="translate(0,2.5e-5)"
         id="path188" />
    </clipPath>
    <clipPath
       clipPathUnits="userSpaceOnUse"
       id="clipPath190">
      <path
         d="m 6882.87,0 h 1260 v 753.422 h -1260 z"
         transform="translate(0,2.5e-5)"
         id="path190" />
    </clipPath>
    <clipPath
       clipPathUnits="userSpaceOnUse"
       id="clipPath192">
      <path
         d="m 6882.87,0 h 1260 v 753.422 h -1260 z"
         transform="translate(0,2.5e-5)"
         id="path192" />
    </clipPath>
    <clipPath
       clipPathUnits="userSpaceOnUse"
       id="clipPath194">
      <path
         d="m 6882.87,0 h 1260 v 753.422 h -1260 z"
         transform="translate(0,2.5e-5)"
         id="path194" />
    </clipPath>
    <clipPath
       clipPathUnits="userSpaceOnUse"
       id="clipPath196">
      <path
         d="m 6882.87,0 h 1260 v 753.422 h -1260 z"
         transform="translate(0,2.5e-5)"
         id="path196" />
    </clipPath>
    <clipPath
       clipPathUnits="userSpaceOnUse"
       id="clipPath198">
      <path
         d="m 6882.87,0 h 1260 v 753.422 h -1260 z"
         transform="translate(0,2.5e-5)"
         id="path198" />
    </clipPath>
    <clipPath
       clipPathUnits="userSpaceOnUse"
       id="clipPath200">
      <path
         d="m 6882.87,0 h 1260 v 753.422 h -1260 z"
         transform="translate(0,2.5e-5)"
         id="path200" />
    </clipPath>
    <clipPath
       clipPathUnits="userSpaceOnUse"
       id="clipPath202">
      <path
         d="m 6882.87,0 h 1260 v 753.422 h -1260 z"
         transform="translate(0,2.5e-5)"
         id="path202" />
    </clipPath>
  </defs>
  <g
     inkscape:label="Layer 1"
     inkscape:groupmode="layer"
     id="layer1">
    <path
       id="path7"
       d="m 7519.39,340.59 c 3.18,-0.68 7.38,-1.129 10.79,-1.129 7.38,0 12.5,8.059 12.5,16.238 0,9.313 -5.8,17.043 -15.57,17.043 -2.61,0 -5.22,-0.351 -7.72,-1.031 z m 0,-24.078 c 0,-9.543 0,-12.383 10.67,-12.383 v -2.047 h -32.03 v 2.047 c 10.68,0 10.68,2.84 10.68,12.383 v 46.34 c 0,9.539 0,12.378 -10.68,12.378 v 2.051 h 30.67 c 17.72,0 26.7,-9.879 26.7,-21.011 0,-5.911 -3.3,-20.68 -23.4,-20.68 -4.21,0 -8.41,0.789 -12.61,1.711"
       style="fill:#2d3394;fill-opacity:1;fill-rule:nonzero;stroke:none"
       transform="matrix(0.03527778,0,0,-0.03527778,-243.75253,25.03276)"
       clip-path="url(#clipPath8)" />
    <path
       id="path9"
       d="m 7594.6,361.719 -13.06,-30.328 h 25.9 z m -14.77,-34.418 -4.54,-10.559 c -0.91,-1.933 -2.5,-5.461 -2.5,-7.613 0,-4.207 4.54,-4.668 8.75,-5.008 v -2.039 h -23.63 v 2.039 c 5.91,0.57 8.29,3.527 11.7,11.481 l 27.03,63.378 h 2.05 l 25.56,-61.332 c 2.84,-6.816 5,-13.187 13.4,-13.527 v -2.039 h -29.64 v 2.039 c 4.88,0.231 7.72,1.141 7.72,5.121 0,2.488 -1.82,6.36 -2.73,8.629 l -4.09,9.43"
       style="fill:#2d3394;fill-opacity:1;fill-rule:nonzero;stroke:none"
       transform="matrix(0.03527778,0,0,-0.03527778,-243.75253,25.03276)"
       clip-path="url(#clipPath10)" />
    <path
       id="path11"
       d="m 7673.66,340.82 h 2.5 c 10.79,0 22.15,3.86 22.15,16.469 0,9.082 -6.13,15.902 -15.34,15.902 -3.18,0 -6.24,-0.57 -9.31,-1.031 z m 33.28,-38.738 -25.56,35.098 h -7.72 v -20.668 c 0,-9.543 0,-12.391 10.68,-12.391 v -2.039 h -32.03 v 2.039 c 10.67,0 10.67,2.848 10.67,12.391 v 46.34 c 0,9.539 0,12.39 -10.67,12.39 v 2.039 h 32.6 c 22.15,0 26.12,-12.949 26.12,-19.539 0,-10.902 -8.74,-17.031 -18.63,-19.082 l 14.66,-20.449 c 5.56,-7.719 9.65,-13.289 19.99,-14.09 v -2.039"
       style="fill:#2d3394;fill-opacity:1;fill-rule:nonzero;stroke:none"
       transform="matrix(0.03527778,0,0,-0.03527778,-243.75253,25.03276)"
       clip-path="url(#clipPath12)" />
    <path
       id="path13"
       d="m 7761.46,316.512 c 0,-9.543 0,-12.383 10.68,-12.383 v -2.047 h -32.03 v 2.047 c 10.68,0 10.68,2.84 10.68,12.383 v 46.347 c 0,9.532 0,12.383 -10.68,12.383 v 2.039 h 32.03 v -2.039 c -10.68,0 -10.68,-2.851 -10.68,-12.383"
       style="fill:#2d3394;fill-opacity:1;fill-rule:nonzero;stroke:none"
       transform="matrix(0.03527778,0,0,-0.03527778,-243.75253,25.03276)"
       clip-path="url(#clipPath14)" />
    <path
       id="path15"
       d="m 7838.71,352.969 h -2.05 c -0.8,11.933 -8.52,21.582 -21.01,21.582 -6.48,0 -13.07,-4.879 -13.07,-11.699 0,-15.793 41.12,-18.512 41.12,-40.782 0,-11.808 -9.31,-21.691 -23.73,-21.691 -5.23,0 -8.98,1.019 -11.93,2.16 -3.07,1.02 -5.34,2.043 -8.07,2.043 -2.61,0 -3.18,-1.934 -3.41,-4.203 h -2.04 v 25.781 h 2.04 c 1.7,-18.168 15.56,-21.351 22.27,-21.351 7.61,0 14.99,3.98 14.99,12.273 0,17.258 -39.98,19.309 -39.98,41.797 0,11.59 10.45,20.101 22.26,20.101 4.09,0 7.5,-1.019 10.22,-2.148 2.84,-1.031 5.01,-2.16 6.48,-2.16 2.72,0 3.4,2.039 3.86,4.308 h 2.05"
       style="fill:#2d3394;fill-opacity:1;fill-rule:nonzero;stroke:none"
       transform="matrix(0.03527778,0,0,-0.03527778,-243.75253,25.03276)"
       clip-path="url(#clipPath16)" />
    <path
       id="path17"
       d="M 7852.96,407.391 H 7490.75"
       style="fill:#2d3394;fill-opacity:1;fill-rule:nonzero;stroke:none"
       transform="matrix(0.03527778,0,0,-0.03527778,-243.75253,25.03276)"
       clip-path="url(#clipPath18)" />
    <path
       id="path19"
       d="m 7490.75,405.832 h 362.211 v 3.10938 H 7490.75 Z"
       style="fill:#2d3394;fill-opacity:1;fill-rule:nonzero;stroke:none"
       transform="matrix(0.03527778,0,0,-0.03527778,-243.75253,25.03276)"
       clip-path="url(#clipPath20)" />
    <path
       id="path21"
       d="m 7411.69,690.48 h -101.71 c -7.74,0 -13.09,-2.351 -13.09,-11.871 V 601.84 h 82.13 l 12.44,-33.238 h -94.57 v -79.141 c 0,-11.898 7.14,-17.852 20.21,-17.852 h 101.73 V 452.602 H 7284.4 c -25.58,0 -41.04,11.89 -41.04,45.199 v 158.808 c 0,25.563 3.56,52.942 46.41,52.942 h 121.92"
       style="fill:#2d3394;fill-opacity:1;fill-rule:nonzero;stroke:none"
       transform="matrix(0.03527778,0,0,-0.03527778,-243.75253,25.03276)"
       clip-path="url(#clipPath22)" />
    <path
       id="path23"
       d="m 8101.23,690.48 h -101.72 c -7.73,0 -13.09,-2.351 -13.09,-11.871 V 601.84 h 82.14 l 12.43,-33.238 h -94.57 v -79.141 c 0,-11.898 7.14,-17.852 20.22,-17.852 h 101.72 v -19.007 h -134.43 c -25.58,0 -41.04,11.89 -41.04,41.05 v 158.809 c 0,29.711 3.57,57.09 46.41,57.09 h 121.93"
       style="fill:#2d3394;fill-opacity:1;fill-rule:nonzero;stroke:none"
       transform="matrix(0.03527778,0,0,-0.03527778,-243.75253,25.03276)"
       clip-path="url(#clipPath24)" />
    <path
       id="path25"
       d="m 7434.26,475.789 c 17.25,-2.398 35.7,-4.18 52.35,-4.18 26.18,0 55.92,7.141 55.92,39.27 0,54.113 -114.79,52.934 -114.79,125.492 0,57.699 50.56,73.18 88.62,73.18 23.78,0 44,-2.399 58.27,-4.172 v -17.84 c -11.28,1.18 -21.39,2.941 -33.29,2.941 -26.76,0 -63.65,1.2 -63.65,-35.671 0,-48.778 118.37,-46.379 118.37,-129.668 0,-50.539 -41.04,-72.539 -88.62,-72.539 -26.78,0 -49.36,0.57 -73.18,6.519"
       style="fill:#2d3394;fill-opacity:1;fill-rule:nonzero;stroke:none"
       transform="matrix(0.03527778,0,0,-0.03527778,-243.75253,25.03276)"
       clip-path="url(#clipPath26)" />
    <path
       id="path27"
       d="M 7635.32,705.82 V 452.602 h 53.5 v 215.929 z"
       style="fill:#2d3394;fill-opacity:1;fill-rule:nonzero;stroke:none"
       transform="matrix(0.03527778,0,0,-0.03527778,-243.75253,25.03276)"
       clip-path="url(#clipPath28)" />
    <path
       id="path29"
       d="m 7810.73,471.609 c -13.07,0 -20.21,5.954 -20.21,17.852 v 79.141 h 93.97 l -12.43,33.238 h -81.54 v 76.769 c 0,9.52 5.35,11.871 13.09,11.871 h 101.72 v 19.071 H 7783.4 c -42.85,0 -46.41,-27.379 -46.41,-52.942 v -42.07 l 39.31,-26.777 -39.31,-25.582 v -64.391 c 0,-33.297 15.46,-45.187 41.04,-45.187 h 126.75 v 19.007"
       style="fill:#2d3394;fill-opacity:1;fill-rule:nonzero;stroke:none"
       transform="matrix(0.03527778,0,0,-0.03527778,-243.75253,25.03276)"
       clip-path="url(#clipPath30)" />
    <path
       id="path31"
       d="m 7085.83,494.809 c -13.98,9.621 -30.35,14.703 -47.34,14.703 -22.55,0 -43.53,-8.36 -59.07,-23.563 -8.36,-8.168 -14.75,-17.898 -18.98,-28.91 l -1.69,-4.398 h 36.34 l 0.96,1.48 c 1.9,2.93 4.12,5.649 6.59,8.059 9.3,9.09 22.04,14.101 35.85,14.101 16.75,0 32.38,-8.301 41.83,-22.222 l 0.96,-1.418 h 36.67 l -1.8,4.461 c -6.19,15.277 -16.67,28.32 -30.32,37.707"
       style="fill:#2d3394;fill-opacity:1;fill-rule:nonzero;stroke:none"
       transform="matrix(0.03527778,0,0,-0.03527778,-243.75253,25.03276)"
       clip-path="url(#clipPath32)" />
    <path
       id="path33"
       d="m 6942.83,640.012 c -8.17,8.359 -17.9,14.738 -28.91,18.98 l -4.4,1.68 v -36.34 l 1.48,-0.961 c 2.94,-1.891 5.65,-4.109 8.06,-6.582 9.09,-9.309 14.1,-22.039 14.1,-35.859 0,-16.739 -8.31,-32.379 -22.22,-41.821 l -1.42,-0.961 v -36.679 l 4.45,1.801 c 15.29,6.191 28.34,16.679 37.72,30.32 9.62,13.98 14.7,30.351 14.7,47.34 0,22.55 -8.37,43.531 -23.56,59.082"
       style="fill:#2d3394;fill-opacity:1;fill-rule:nonzero;stroke:none"
       transform="matrix(0.03527778,0,0,-0.03527778,-243.75253,25.03276)"
       clip-path="url(#clipPath34)" />
    <path
       id="path35"
       d="m 6991.3,667.422 c 13.98,-9.609 30.35,-14.692 47.34,-14.692 22.55,0 43.53,8.36 59.08,23.559 8.36,8.172 14.74,17.891 18.97,28.91 l 1.69,4.391 h -36.34 l -0.96,-1.469 c -1.9,-2.941 -4.12,-5.652 -6.59,-8.062 -9.3,-9.098 -22.03,-14.098 -35.85,-14.098 -16.74,0 -32.38,8.301 -41.82,22.219 l -0.96,1.41 h -36.68 l 1.8,-4.449 c 6.19,-15.282 16.68,-28.332 30.32,-37.719"
       style="fill:#2d3394;fill-opacity:1;fill-rule:nonzero;stroke:none"
       transform="matrix(0.03527778,0,0,-0.03527778,-243.75253,25.03276)"
       clip-path="url(#clipPath36)" />
    <path
       id="path37"
       d="m 7166.19,623.129 1.42,0.961 v 36.68 l -4.45,-1.809 c -15.29,-6.191 -28.33,-16.672 -37.72,-30.32 -9.61,-13.981 -14.7,-30.352 -14.7,-47.34 0,-22.539 8.37,-43.531 23.56,-59.071 8.17,-8.359 17.9,-14.75 28.92,-18.98 l 4.39,-1.68 v 36.332 l -1.48,0.957 c -2.93,1.903 -5.64,4.121 -8.06,6.59 -9.09,9.313 -14.1,22.043 -14.1,35.852 0,16.75 8.31,32.379 22.22,41.828"
       style="fill:#2d3394;fill-opacity:1;fill-rule:nonzero;stroke:none"
       transform="matrix(0.03527778,0,0,-0.03527778,-243.75253,25.03276)"
       clip-path="url(#clipPath38)" />
    <path
       id="path39"
       d="m 7071.45,580.84 c 0,-18.348 -14.88,-33.231 -33.23,-33.231 -18.35,0 -33.23,14.883 -33.23,33.231 0,18.351 14.88,33.23 33.23,33.23 18.35,0 33.23,-14.879 33.23,-33.23"
       style="fill:#2d3394;fill-opacity:1;fill-rule:nonzero;stroke:none"
       transform="matrix(0.03527778,0,0,-0.03527778,-243.75253,25.03276)"
       clip-path="url(#clipPath40)" />
    <path
       id="path41"
       d="M 8109.71,225.66 H 6909.52"
       style="fill:#2d3394;fill-opacity:1;fill-rule:nonzero;stroke:none"
       transform="matrix(0.03527778,0,0,-0.03527778,-243.75253,25.03276)"
       clip-path="url(#clipPath42)" />
    <path
       id="path43"
       d="m 6909.52,225.141 h 1200.19 v 1.03906 H 6909.52 Z"
       style="fill:#2d3394;fill-opacity:1;fill-rule:nonzero;stroke:none"
       transform="matrix(0.03527778,0,0,-0.03527778,-243.75253,25.03276)"
       clip-path="url(#clipPath44)" />
    <path
       id="path45"
       d="m 7582.09,38.4609 c -6.74,4.6289 -14.62,7.0782 -22.8,7.0782 -10.86,0 -20.96,-4.0196 -28.45,-11.3399 -4.02,-3.9375 -7.1,-8.6172 -9.14,-13.9297 l -0.81,-2.1093 h 17.5 l 0.46,0.7109 c 0.92,1.4102 1.98,2.7187 3.17,3.8789 4.48,4.3789 10.62,6.7891 17.27,6.7891 8.06,0 15.59,-4 20.14,-10.6993 l 0.46,-0.6796 h 17.66 l -0.86,2.1406 c -2.98,7.3594 -8.04,13.6406 -14.6,18.1601"
       style="fill:#2d3394;fill-opacity:1;fill-rule:nonzero;stroke:none"
       transform="matrix(0.03527778,0,0,-0.03527778,-243.75253,25.03276)"
       clip-path="url(#clipPath46)" />
    <path
       id="path47"
       d="m 7513.22,108.379 c -3.93,4.031 -8.61,7.113 -13.92,9.141 l -2.12,0.82 v -17.508 l 0.71,-0.461 c 1.42,-0.9101 2.72,-1.9804 3.89,-3.1718 4.37,-4.4804 6.78,-10.6094 6.78,-17.2578 0,-8.0703 -4,-15.6016 -10.69,-20.1406 l -0.69,-0.4688 V 41.6719 l 2.14,0.8672 c 7.37,2.9804 13.65,8.0312 18.17,14.6015 4.63,6.7305 7.08,14.6094 7.08,22.8008 0,10.8594 -4.03,20.9606 -11.35,28.4376"
       style="fill:#2d3394;fill-opacity:1;fill-rule:nonzero;stroke:none"
       transform="matrix(0.03527778,0,0,-0.03527778,-243.75253,25.03276)"
       clip-path="url(#clipPath48)" />
    <path
       id="path49"
       d="m 7536.56,121.59 c 6.73,-4.629 14.62,-7.078 22.8,-7.078 10.86,0 20.96,4.019 28.45,11.34 4.02,3.937 7.1,8.617 9.13,13.929 l 0.82,2.11 h -17.5 l -0.46,-0.711 c -0.92,-1.41 -1.98,-2.719 -3.17,-3.879 -4.48,-4.379 -10.62,-6.789 -17.27,-6.789 -8.06,0 -15.59,4 -20.14,10.699 l -0.46,0.68 h -17.67 l 0.87,-2.141 c 2.98,-7.359 8.03,-13.641 14.6,-18.16"
       style="fill:#2d3394;fill-opacity:1;fill-rule:nonzero;stroke:none"
       transform="matrix(0.03527778,0,0,-0.03527778,-243.75253,25.03276)"
       clip-path="url(#clipPath50)" />
    <path
       id="path51"
       d="m 7620.78,100.25 0.69,0.469 v 17.66 l -2.15,-0.867 c -7.36,-2.981 -13.64,-8.032 -18.16,-14.602 -4.63,-6.7303 -7.08,-14.6092 -7.08,-22.7889 0,-10.8594 4.03,-20.9688 11.35,-28.4492 3.93,-4.0313 8.61,-7.1016 13.92,-9.1406 l 2.12,-0.8204 v 17.5079 l -0.72,0.4609 c -1.41,0.9101 -2.72,1.9805 -3.88,3.1719 -4.38,4.4804 -6.79,10.6093 -6.79,17.2695 0,8.0586 4,15.5898 10.7,20.1289"
       style="fill:#2d3394;fill-opacity:1;fill-rule:nonzero;stroke:none"
       transform="matrix(0.03527778,0,0,-0.03527778,-243.75253,25.03276)"
       clip-path="url(#clipPath52)" />
    <path
       id="path53"
       d="m 7575.16,79.8906 c 0,-8.8398 -7.17,-16 -16,-16 -8.84,0 -16,7.1602 -16,16 0,8.8399 7.16,16 16,16 8.83,0 16,-7.1601 16,-16"
       style="fill:#2d3394;fill-opacity:1;fill-rule:nonzero;stroke:none"
       transform="matrix(0.03527778,0,0,-0.03527778,-243.75253,25.03276)"
       clip-path="url(#clipPath54)" />
    <path
       id="path55"
       d="m 7671.45,105.07 c -2.14,2.219 -3.23,5.012 -3.23,8.282 v 28.558 h -9.97 v -28.558 c 0,-5.832 2.01,-10.77 5.97,-14.6918 3.96,-3.9297 8.99,-5.918 14.95,-5.918 5.98,0 11.02,1.9883 14.97,5.918 3.96,3.9218 5.97,8.8598 5.97,14.6918 v 28.558 h -9.98 v -28.558 c 0,-3.289 -1.07,-6.082 -3.2,-8.301 -2.13,-2.219 -4.73,-3.352 -7.73,-3.352 -3,0 -5.61,1.133 -7.75,3.371"
       style="fill:#2d3394;fill-opacity:1;fill-rule:nonzero;stroke:none"
       transform="matrix(0.03527778,0,0,-0.03527778,-243.75253,25.03276)"
       clip-path="url(#clipPath56)" />
    <path
       id="path57"
       d="m 7731.52,117.469 c 1.26,-1.309 1.9,-3.039 1.9,-5.168 V 93.7891 h 8.92 v 19.5629 c 0,4.488 -1.22,8.097 -3.62,10.73 -2.39,2.617 -5.53,3.957 -9.33,3.957 -1.81,0 -3.56,-0.449 -5.2,-1.328 -1.65,-0.891 -2.74,-1.602 -3.22,-2.109 l -1.13,-1.321 -0.38,-0.5 v 4.578 h -8.92 V 93.7891 h 8.92 v 17.4729 c 0,2.578 0.65,4.609 1.94,6.027 1.28,1.43 3.03,2.16 5.21,2.16 1.99,0 3.64,-0.668 4.91,-1.98"
       style="fill:#2d3394;fill-opacity:1;fill-rule:nonzero;stroke:none"
       transform="matrix(0.03527778,0,0,-0.03527778,-243.75253,25.03276)"
       clip-path="url(#clipPath58)" />
    <path
       id="path59"
       d="m 7756.37,132.281 c 1.65,0 2.97,0.449 3.91,1.36 0.95,0.898 1.43,2.121 1.43,3.621 0,1.508 -0.48,2.718 -1.43,3.629 -0.94,0.898 -2.26,1.359 -3.91,1.359 -1.5,0 -2.71,-0.461 -3.62,-1.359 -0.9,-0.899 -1.36,-2.121 -1.36,-3.629 0,-1.5 0.45,-2.723 1.35,-3.621 0.89,-0.911 2.11,-1.36 3.63,-1.36"
       style="fill:#2d3394;fill-opacity:1;fill-rule:nonzero;stroke:none"
       transform="matrix(0.03527778,0,0,-0.03527778,-243.75253,25.03276)"
       clip-path="url(#clipPath60)" />
    <path
       id="path61"
       d="m 7752.07,93.7891 h 8.9609 v 33.5703 h -8.9609 z"
       style="fill:#2d3394;fill-opacity:1;fill-rule:nonzero;stroke:none"
       transform="matrix(0.03527778,0,0,-0.03527778,-243.75253,25.03276)"
       clip-path="url(#clipPath62)" />
    <path
       id="path63"
       d="m 7792.2,127.359 -8.13,-22.961 -0.2,0.551 -7.9,22.41 h -9.27 l 12.67,-33.5699 h 9.43 l 12.64,33.5699"
       style="fill:#2d3394;fill-opacity:1;fill-rule:nonzero;stroke:none"
       transform="matrix(0.03527778,0,0,-0.03527778,-243.75253,25.03276)"
       clip-path="url(#clipPath64)" />
    <path
       id="path65"
       d="m 7813.97,114.09 c 0.57,1.879 1.58,3.43 3,4.601 1.41,1.168 3.16,1.77 5.18,1.77 2.04,0 3.78,-0.609 5.17,-1.801 1.39,-1.199 2.29,-2.75 2.66,-4.59 l 0.05,-0.25 h -16.14 z m 13.61,-20.3712 c 1.64,0.4023 2.99,0.871 3.99,1.3906 1.02,0.5117 2,1.1211 2.92,1.789 0.93,0.6836 1.52,1.1407 1.79,1.4219 l 0.49,0.4922 -4.57,5.8985 -0.82,-0.879 c -0.62,-0.723 -1.68,-1.41 -3.23,-2.121 -1.52,-0.699 -3.19,-1.063 -4.98,-1.063 -2.47,0 -4.55,0.665 -6.18,1.961 -1.64,1.301 -2.66,2.922 -3.02,4.813 l -0.05,0.25 h 24.67 l 0.32,3.609 c 0,4.739 -1.61,8.77 -4.78,11.961 -3.17,3.18 -7.2,4.797 -11.98,4.797 -4.77,0 -8.92,-1.726 -12.34,-5.137 -3.42,-3.41 -5.15,-7.55 -5.15,-12.32 0,-4.781 1.76,-8.922 5.22,-12.332 3.46,-3.3984 7.71,-5.1289 12.61,-5.1289 1.74,0 3.45,0.1992 5.09,0.5977"
       style="fill:#2d3394;fill-opacity:1;fill-rule:nonzero;stroke:none"
       transform="matrix(0.03527778,0,0,-0.03527778,-243.75253,25.03276)"
       clip-path="url(#clipPath66)" />
    <path
       id="path67"
       d="m 7866.26,118.813 v 8.878 h -1.18 c -1.81,0 -3.56,-0.41 -5.21,-1.23 -1.64,-0.813 -2.72,-1.469 -3.21,-1.969 l -1.14,-1.222 -0.36,-0.43 v 4.519 h -8.93 V 93.7891 h 8.93 v 16.0699 c 0,2.95 0.74,5.262 2.2,6.852 1.47,1.59 3.48,2.398 6,2.398 1.25,-0.019 2.2,-0.117 2.9,-0.296"
       style="fill:#2d3394;fill-opacity:1;fill-rule:nonzero;stroke:none"
       transform="matrix(0.03527778,0,0,-0.03527778,-243.75253,25.03276)"
       clip-path="url(#clipPath68)" />
    <path
       id="path69"
       d="m 7894.48,108.84 c -1.04,1.39 -2.33,2.422 -3.85,3.051 -1.53,0.64 -3.08,1.191 -4.6,1.648 -1.51,0.461 -2.83,0.992 -3.91,1.59 -1.13,0.633 -1.7,1.43 -1.7,2.383 l 1.21,2.09 c 0.77,0.57 1.83,0.859 3.16,0.859 1.04,0 2.08,-0.262 3.07,-0.789 1,-0.52 1.65,-0.93 1.97,-1.27 l 0.52,-0.562 4.55,5.199 -1.06,1.18 c -0.73,0.801 -2.1,1.652 -4.04,2.523 -1.94,0.86 -4.1,1.289 -6.4,1.289 -3.63,0 -6.73,-1.09 -9.22,-3.261 -2.48,-2.161 -3.74,-4.598 -3.74,-7.258 0,-2.032 0.53,-3.75 1.55,-5.082 1.04,-1.34 2.31,-2.348 3.8,-2.981 1.51,-0.648 3.06,-1.219 4.59,-1.668 1.56,-0.461 2.9,-1.019 3.97,-1.652 1.13,-0.66 1.7,-1.5 1.7,-2.488 0,-0.993 -0.41,-1.809 -1.22,-2.422 -0.79,-0.61 -1.94,-0.91 -3.49,-0.91 -1.38,0 -2.74,0.371 -4.03,1.101 -1.29,0.719 -2.12,1.281 -2.54,1.731 l -0.74,0.851 -4.91,-4.8826 0.38,-0.5703 1.59,-1.4571 c 0.76,-0.6015 1.64,-1.2031 2.64,-1.8007 0.98,-0.5899 2.3,-1.1016 3.91,-1.5313 1.6,-0.418 3.31,-0.6289 5.09,-0.6289 4.13,0 7.41,1.0195 9.76,3.0195 2.35,2.0078 3.53,4.5314 3.53,7.5004 0,2.07 -0.52,3.82 -1.54,5.199"
       style="fill:#2d3394;fill-opacity:1;fill-rule:nonzero;stroke:none"
       transform="matrix(0.03527778,0,0,-0.03527778,-243.75253,25.03276)"
       clip-path="url(#clipPath70)" />
    <path
       id="path71"
       d="m 7907.95,132.281 c 1.66,0 2.98,0.449 3.92,1.36 0.95,0.898 1.43,2.121 1.43,3.621 0,1.508 -0.48,2.718 -1.43,3.629 -0.94,0.898 -2.26,1.359 -3.92,1.359 -1.49,0 -2.71,-0.461 -3.61,-1.359 -0.9,-0.899 -1.36,-2.121 -1.36,-3.629 0,-1.5 0.45,-2.723 1.35,-3.621 0.89,-0.911 2.11,-1.36 3.62,-1.36"
       style="fill:#2d3394;fill-opacity:1;fill-rule:nonzero;stroke:none"
       transform="matrix(0.03527778,0,0,-0.03527778,-243.75253,25.03276)"
       clip-path="url(#clipPath72)" />
    <path
       id="path73"
       d="m 7903.66,93.7891 h 8.9609 v 33.5703 h -8.9609 z"
       style="fill:#2d3394;fill-opacity:1;fill-rule:nonzero;stroke:none"
       transform="matrix(0.03527778,0,0,-0.03527778,-243.75253,25.03276)"
       clip-path="url(#clipPath74)" />
    <path
       id="path75"
       d="m 7938.78,100.988 c -1.24,0 -2.29,0.391 -3.1,1.172 -0.82,0.781 -1.24,1.75 -1.24,2.86 v 13.722 h 6.91 v 7.91 h -6.91 v 10.727 h -7.91 v -6.02 c 0,-1.379 -0.4,-2.519 -1.17,-3.39 -0.79,-0.879 -1.75,-1.317 -2.86,-1.317 h -2.91 v -7.91 h 5.89 V 104.68 c 0,-7.7816 3.44,-11.5589 10.52,-11.5589 h 0.24 c 2.13,0 4.09,0.3086 5.82,0.9375 v 7.5624 l -0.13,-0.039 -1.33,-0.391 -1.82,-0.203"
       style="fill:#2d3394;fill-opacity:1;fill-rule:nonzero;stroke:none"
       transform="matrix(0.03527778,0,0,-0.03527778,-243.75253,25.03276)"
       clip-path="url(#clipPath76)" />
    <path
       id="path77"
       d="m 7954.76,113.82 0.08,0.27 c 0.58,1.879 1.58,3.43 3,4.601 1.41,1.168 3.15,1.77 5.18,1.77 2.04,0 3.77,-0.609 5.17,-1.801 1.39,-1.211 2.29,-2.75 2.66,-4.59 l 0.05,-0.25 z m 8.26,14.219 c -4.77,0 -8.92,-1.726 -12.34,-5.137 -3.42,-3.41 -5.15,-7.55 -5.15,-12.32 0,-4.781 1.76,-8.922 5.22,-12.332 3.46,-3.3984 7.71,-5.1289 12.61,-5.1289 1.74,0 3.45,0.1992 5.08,0.5977 1.65,0.4023 2.99,0.871 4,1.3906 1.02,0.5117 2,1.1211 2.92,1.789 0.93,0.6836 1.52,1.1407 1.79,1.4219 l 0.49,0.4922 -4.58,5.8865 -0.81,-0.867 c -0.62,-0.711 -1.68,-1.422 -3.23,-2.121 -1.52,-0.699 -3.19,-1.063 -4.98,-1.063 -2.47,0 -4.55,0.665 -6.18,1.961 -1.64,1.301 -2.66,2.922 -3.02,4.813 l -0.05,0.25 h 24.67 l 0.32,3.609 c 0,4.739 -1.61,8.77 -4.78,11.961 -3.17,3.18 -7.2,4.797 -11.98,4.797"
       style="fill:#2d3394;fill-opacity:1;fill-rule:nonzero;stroke:none"
       transform="matrix(0.03527778,0,0,-0.03527778,-243.75253,25.03276)"
       clip-path="url(#clipPath78)" />
    <path
       id="path79"
       d="m 7965.22,142.25 -5.33,-9.969 h 7.19 l 7.31,9.969 z"
       style="fill:#2d3394;fill-opacity:1;fill-rule:nonzero;stroke:none"
       transform="matrix(0.03527778,0,0,-0.03527778,-243.75253,25.03276)"
       clip-path="url(#clipPath80)" />
    <path
       id="path81"
       d="m 7697,30.0195 -0.08,-0.0586 -1.05,-0.8906 c -0.73,-0.6601 -2.02,-1.3281 -3.82,-1.9805 -1.8,-0.6484 -3.82,-0.9804 -5.99,-0.9804 -4.57,0 -8.44,1.5625 -11.52,4.6328 -3.08,3.0781 -4.63,6.9492 -4.63,11.5273 0,4.5625 1.55,8.4414 4.63,11.5118 3.07,3.0703 6.95,4.6289 11.52,4.6289 1.66,0 3.31,-0.2618 4.91,-0.7696 1.59,-0.5117 2.89,-1.082 3.87,-1.6797 0.97,-0.6015 1.89,-1.3086 2.72,-2.1015 l 1.61,-1.7071 0.09,-0.121 0.33,-0.4493 6.3,6.3086 -0.67,0.8711 c -0.48,0.6367 -1.29,1.4297 -2.42,2.3594 -1.13,0.9375 -2.44,1.8906 -3.9,2.8398 -1.45,0.9297 -3.35,1.7305 -5.62,2.3907 -2.28,0.6601 -4.7,0.9882 -7.22,0.9882 -7.31,0 -13.56,-2.4687 -18.59,-7.3593 -5.02,-4.8711 -7.57,-10.8282 -7.57,-17.711 0,-6.8906 2.55,-12.8593 7.57,-17.75 5.03,-4.8906 11.28,-7.3672 18.59,-7.3672 2.54,0 5.04,0.3399 7.44,1.0079 2.4,0.6718 4.36,1.4218 5.85,2.2304 1.49,0.8203 2.91,1.7696 4.23,2.8282 1.32,1.0507 2.2,1.8125 2.59,2.2421 l 0.8,0.9297 v 17.7305 h -18.64 v -7.1992 h 8.67"
       style="fill:#2d3394;fill-opacity:1;fill-rule:nonzero;stroke:none"
       transform="matrix(0.03527778,0,0,-0.03527778,-243.75253,25.03276)"
       clip-path="url(#clipPath82)" />
    <path
       id="path83"
       d="m 7727.55,27.6992 c -1.29,1.2696 -1.94,2.9024 -1.94,4.8516 v 19.2187 h -8.92 V 31.6406 c 0,-4.2617 1.22,-7.7187 3.62,-10.2695 2.39,-2.5508 5.52,-3.8398 9.34,-3.8398 1.81,0 3.57,0.371 5.21,1.1093 1.64,0.7383 2.72,1.3399 3.21,1.7891 l 1.13,1.1601 0.37,0.4219 v -3.8125 h 8.92 v 33.5703 h -8.92 V 33.9297 c 0,-2.5781 -0.65,-4.6094 -1.94,-6.0195 -1.28,-1.418 -3.03,-2.1289 -5.21,-2.1289 -1.94,0 -3.58,0.6484 -4.87,1.9179"
       style="fill:#2d3394;fill-opacity:1;fill-rule:nonzero;stroke:none"
       transform="matrix(0.03527778,0,0,-0.03527778,-243.75253,25.03276)"
       clip-path="url(#clipPath84)" />
    <path
       id="path85"
       d="m 7777.02,36.3008 c -1.53,0.6406 -3.08,1.1914 -4.6,1.6484 -1.51,0.461 -2.83,1 -3.91,1.5899 -1.13,0.6328 -1.7,1.4297 -1.7,2.3828 l 1.2,2.0781 c 0.77,0.582 1.84,0.8711 3.17,0.8711 1.04,0 2.08,-0.2617 3.08,-0.7813 0.99,-0.5312 1.64,-0.9414 1.96,-1.2812 l 0.51,-0.5586 4.56,5.1914 -1.06,1.1875 c -0.74,0.8008 -2.1,1.6406 -4.04,2.5234 -1.94,0.8594 -4.1,1.2969 -6.4,1.2969 -3.63,0 -6.73,-1.1094 -9.22,-3.2695 -2.48,-2.1602 -3.74,-4.5977 -3.74,-7.2578 0,-2.043 0.52,-3.7422 1.55,-5.0821 1.03,-1.3398 2.31,-2.3476 3.79,-2.9804 1.52,-0.6485 3.06,-1.211 4.6,-1.668 1.56,-0.4609 2.9,-1.0117 3.98,-1.6406 1.12,-0.6602 1.69,-1.5 1.69,-2.5 0,-0.9922 -0.41,-1.8086 -1.22,-2.4219 -0.79,-0.6094 -1.94,-0.8984 -3.5,-0.8984 -1.38,0 -2.73,0.3593 -4.02,1.0898 -1.29,0.7188 -2.12,1.2891 -2.54,1.7305 l -0.74,0.8515 -4.91,-4.8828 0.37,-0.5703 1.6,-1.457 c 0.75,-0.5899 1.64,-1.2031 2.63,-1.8008 0.99,-0.582 2.31,-1.1016 3.92,-1.5312 1.6,-0.418 3.3,-0.6289 5.09,-0.6289 4.12,0 7.41,1.0195 9.76,3.0273 2.34,1.9922 3.53,4.5117 3.53,7.4922 0,2.0703 -0.52,3.8203 -1.54,5.2109 -1.04,1.3789 -2.33,2.4102 -3.85,3.0391"
       style="fill:#2d3394;fill-opacity:1;fill-rule:nonzero;stroke:none"
       transform="matrix(0.03527778,0,0,-0.03527778,-243.75253,25.03276)"
       clip-path="url(#clipPath86)" />
    <path
       id="path87"
       d="m 7803.02,26.5703 c -0.82,0.7891 -1.23,1.75 -1.23,2.8594 v 13.7187 h 6.9 v 7.9102 h -6.9 v 10.7305 h -7.92 v -6.0196 c 0,-1.3789 -0.39,-2.5195 -1.16,-3.3906 -0.79,-0.8789 -1.76,-1.3203 -2.87,-1.3203 h -2.9 v -7.9102 h 5.88 V 29.0898 c 0,-7.7773 3.44,-11.5585 10.52,-11.5585 h 0.24 c 2.14,0 4.09,0.3203 5.82,0.9375 v 7.5625 l -0.13,-0.043 -1.32,-0.3985 -1.83,-0.1875 c -1.24,0 -2.28,0.3985 -3.1,1.168"
       style="fill:#2d3394;fill-opacity:1;fill-rule:nonzero;stroke:none"
       transform="matrix(0.03527778,0,0,-0.03527778,-243.75253,25.03276)"
       clip-path="url(#clipPath88)" />
    <path
       id="path89"
       d="m 7835.08,32.5508 c 0,-2.4414 -0.65,-4.3711 -1.93,-5.75 -1.29,-1.3789 -3.05,-2.0703 -5.22,-2.0703 -3.13,0 -4.71,1.2304 -4.71,3.6484 0,2.2617 1.35,3.6133 4,4.0313 l 7.86,1.4414 z m -5.42,19.8984 c -1.61,0 -3.22,-0.2383 -4.78,-0.7187 -1.55,-0.4805 -2.82,-1.0117 -3.78,-1.5703 -0.93,-0.5508 -1.82,-1.211 -2.66,-1.961 l -1.56,-1.5469 -0.06,-0.0625 -0.39,-0.5195 4.9,-4.8984 0.63,0.6601 c 0.53,0.6172 1.45,1.2266 2.74,1.8203 1.29,0.5899 2.73,0.8868 4.28,0.8868 1.9,0 3.4,-0.4688 4.47,-1.4102 1.08,-0.9375 1.63,-2.1601 1.63,-3.6367 v -0.1719 l -0.18,-0.0312 -10.76,-1.9375 c -3.08,-0.5508 -5.52,-1.75 -7.26,-3.5625 -1.74,-1.7969 -2.62,-4.0899 -2.62,-6.7891 0,-2.6094 1.05,-4.8711 3.11,-6.6992 2.07,-1.8399 4.8,-2.7695 8.12,-2.7695 1.73,0 3.41,0.371 5,1.1093 1.59,0.75 2.64,1.3399 3.11,1.7891 l 1.11,1.1523 0.37,0.4375 v -3.8203 h 8.93 v 20.9531 c 0,3.7969 -1.35,7.0079 -4,9.5079 -2.65,2.5117 -6.14,3.789 -10.35,3.789"
       style="fill:#2d3394;fill-opacity:1;fill-rule:nonzero;stroke:none"
       transform="matrix(0.03527778,0,0,-0.03527778,-243.75253,25.03276)"
       clip-path="url(#clipPath90)" />
    <path
       id="path91"
       d="m 7866.5,29.3594 -7.91,22.4101 h -9.27 l 12.67,-33.5703 h 9.43 l 12.64,33.5703 h -9.23 l -8.14,-22.957"
       style="fill:#2d3394;fill-opacity:1;fill-rule:nonzero;stroke:none"
       transform="matrix(0.03527778,0,0,-0.03527778,-243.75253,25.03276)"
       clip-path="url(#clipPath92)" />
    <path
       id="path93"
       d="m 7896.51,38.2305 0.09,0.2695 c 0.57,1.8789 1.57,3.4219 2.99,4.6016 1.41,1.1679 3.16,1.7695 5.19,1.7695 2.03,0 3.77,-0.6094 5.16,-1.8125 1.39,-1.1992 2.29,-2.7383 2.66,-4.5781 l 0.05,-0.25 z m 8.27,14.2187 c -4.78,0 -8.93,-1.7304 -12.34,-5.1406 -3.42,-3.4102 -5.16,-7.5469 -5.16,-12.3164 0,-4.7813 1.76,-8.9219 5.23,-12.332 3.46,-3.3985 7.7,-5.1289 12.61,-5.1289 1.74,0 3.44,0.1992 5.08,0.5976 1.64,0.4024 2.99,0.8711 4,1.3906 1,0.5118 1.99,1.1094 2.92,1.793 0.93,0.6875 1.52,1.1484 1.78,1.418 l 0.49,0.4883 -4.57,5.8906 -0.82,-0.8672 c -0.62,-0.7109 -1.68,-1.4219 -3.22,-2.1211 -1.52,-0.6992 -3.2,-1.0586 -4.98,-1.0586 -2.47,0 -4.56,0.6563 -6.19,1.957 -1.63,1.3008 -2.66,2.9219 -3.02,4.8125 l -0.05,0.25 h 24.67 l 0.32,3.6094 c 0,4.7383 -1.61,8.7774 -4.78,11.957 -3.17,3.1836 -7.2,4.8008 -11.97,4.8008"
       style="fill:#2d3394;fill-opacity:1;fill-rule:nonzero;stroke:none"
       transform="matrix(0.03527778,0,0,-0.03527778,-243.75253,25.03276)"
       clip-path="url(#clipPath94)" />
    <path
       id="path95"
       d="m 7955.1,38.3086 h 19.73 v 8.9297 h -19.73 v 10.1211 h 25.28 v 8.9609 h -35.29 V 18.1992 h 36.01 v 8.9297 h -26"
       style="fill:#2d3394;fill-opacity:1;fill-rule:nonzero;stroke:none"
       transform="matrix(0.03527778,0,0,-0.03527778,-243.75253,25.03276)"
       clip-path="url(#clipPath96)" />
    <path
       id="path97"
       d="m 7989.4,18.1992 h 8.9609 V 51.7695 H 7989.4 Z"
       style="fill:#2d3394;fill-opacity:1;fill-rule:nonzero;stroke:none"
       transform="matrix(0.03527778,0,0,-0.03527778,-243.75253,25.03276)"
       clip-path="url(#clipPath98)" />
    <path
       id="path99"
       d="m 7993.69,66.6602 c -1.49,0 -2.71,-0.4493 -3.61,-1.3594 -0.9,-0.9024 -1.36,-2.1211 -1.36,-3.6211 0,-1.5078 0.45,-2.7305 1.35,-3.6289 0.88,-0.8985 2.11,-1.3594 3.62,-1.3594 1.66,0 2.97,0.4609 3.92,1.3594 0.94,0.9101 1.43,2.1211 1.43,3.6289 0,1.5 -0.49,2.7109 -1.43,3.6211 -0.95,0.9101 -2.26,1.3594 -3.92,1.3594"
       style="fill:#2d3394;fill-opacity:1;fill-rule:nonzero;stroke:none"
       transform="matrix(0.03527778,0,0,-0.03527778,-243.75253,25.03276)"
       clip-path="url(#clipPath100)" />
    <path
       id="path101"
       d="m 7997.61,58.0508 c -0.95,-0.8985 -2.26,-1.3594 -3.92,-1.3594 -1.51,0 -2.74,0.4609 -3.62,1.3594 -0.9,0.8984 -1.35,2.1211 -1.35,3.6289 0,1.5 0.46,2.7187 1.36,3.6211 0.9,0.9101 2.12,1.3594 3.61,1.3594 1.66,0 2.97,-0.4493 3.92,-1.3594 0.94,-0.9102 1.43,-2.1211 1.43,-3.6211 0,-1.5078 -0.49,-2.7188 -1.43,-3.6289"
       style="fill:#2d3394;fill-opacity:1;fill-rule:nonzero;stroke:none"
       transform="matrix(0.03527778,0,0,-0.03527778,-243.75253,25.03276)"
       clip-path="url(#clipPath102)" />
    <path
       id="path103"
       d="m 8023.76,66.7422 c -1.03,0.168 -2.05,0.2578 -3.04,0.2578 -7.1,0 -10.55,-3.7812 -10.55,-11.5703 v -4.7109 h -4.84 v -7.9102 h 4.84 V 18.1992 h 8.95 v 24.6094 h 7.62 v 7.9102 h -7.62 v 4.371 c 0,1.1211 0.43,2.0704 1.25,2.8399 0.83,0.7695 1.88,1.1601 3.12,1.1601 1.26,0 2.35,-0.1914 3.25,-0.5703 v 7.4922 l -0.6,0.1875 c -0.56,0.1797 -1.36,0.3594 -2.38,0.543"
       style="fill:#2d3394;fill-opacity:1;fill-rule:nonzero;stroke:none"
       transform="matrix(0.03527778,0,0,-0.03527778,-243.75253,25.03276)"
       clip-path="url(#clipPath104)" />
    <path
       id="path105"
       d="M 8049.03,66.7422 C 8048,66.9102 8046.97,67 8045.98,67 c -7.1,0 -10.55,-3.7812 -10.55,-11.5703 v -4.7109 h -4.84 v -7.9102 h 4.84 V 18.1992 h 8.96 v 24.6094 h 7.62 v 7.9102 h -7.62 v 4.371 c 0,1.1211 0.42,2.0704 1.25,2.8399 0.83,0.7695 1.88,1.1601 3.12,1.1601 1.26,0 2.35,-0.1914 3.25,-0.5703 v 7.4922 l -0.6,0.1875 c -0.57,0.1797 -1.37,0.3594 -2.38,0.543"
       style="fill:#2d3394;fill-opacity:1;fill-rule:nonzero;stroke:none"
       transform="matrix(0.03527778,0,0,-0.03527778,-243.75253,25.03276)"
       clip-path="url(#clipPath106)" />
    <path
       id="path107"
       d="m 8065.76,38.2305 0.08,0.2695 c 0.57,1.8789 1.58,3.4219 2.99,4.6016 1.42,1.1679 3.16,1.7695 5.19,1.7695 2.03,0 3.77,-0.6094 5.17,-1.8125 1.39,-1.1992 2.29,-2.7383 2.65,-4.5781 l 0.06,-0.25 z m 8.26,14.2187 c -4.77,0 -8.92,-1.7304 -12.34,-5.1406 -3.42,-3.4102 -5.15,-7.5469 -5.15,-12.3164 0,-4.7813 1.76,-8.9219 5.22,-12.332 3.46,-3.3985 7.71,-5.1289 12.61,-5.1289 1.74,0 3.45,0.1992 5.08,0.5976 1.65,0.4024 2.99,0.8711 4,1.3906 1.01,0.5118 1.99,1.1094 2.92,1.793 0.93,0.6875 1.52,1.1484 1.79,1.418 l 0.49,0.4883 -4.58,5.8906 -0.82,-0.8672 c -0.62,-0.7109 -1.67,-1.4219 -3.22,-2.1211 -1.52,-0.6992 -3.2,-1.0586 -4.98,-1.0586 -2.47,0 -4.55,0.6563 -6.19,1.957 -1.63,1.3008 -2.65,2.9219 -3.02,4.8125 l -0.05,0.25 h 24.68 l 0.32,3.6094 c 0,4.7383 -1.61,8.7774 -4.78,11.957 -3.17,3.1836 -7.2,4.8008 -11.98,4.8008"
       style="fill:#2d3394;fill-opacity:1;fill-rule:nonzero;stroke:none"
       transform="matrix(0.03527778,0,0,-0.03527778,-243.75253,25.03276)"
       clip-path="url(#clipPath108)" />
    <path
       id="path109"
       d="m 8098.43,18.1992 h 8.9609 v 48.1211 h -8.9609 z"
       style="fill:#2d3394;fill-opacity:1;fill-rule:nonzero;stroke:none"
       transform="matrix(0.03527778,0,0,-0.03527778,-243.75253,25.03276)"
       clip-path="url(#clipPath110)" />
    <path
       id="path111"
       d="m 6928.34,125.93 450.68,-0.039 v -1.68 l -450.68,0.031"
       style="fill:#295cb3;fill-opacity:1;fill-rule:nonzero;stroke:none"
       transform="matrix(0.03527778,0,0,-0.03527778,-243.75253,25.03276)"
       clip-path="url(#clipPath112)" />
    <path
       id="path113"
       d="m 6938.28,138.52 c 0,-2.618 -1.68,-4.598 -4.98,-4.598 -3.29,0 -4.95,1.887 -4.95,4.598 v 8.742 h 2.77 v -8.61 c 0,-1.754 0.68,-2.621 2.18,-2.621 1.53,0 2.21,0.867 2.21,2.621 v 8.61 h 2.77"
       style="fill:#295cb3;fill-opacity:1;fill-rule:nonzero;stroke:none"
       transform="matrix(0.03527778,0,0,-0.03527778,-243.75253,25.03276)"
       clip-path="url(#clipPath114)" />
    <path
       id="path115"
       d="m 6949.17,141.5 v -7.27 h -2.67 v 6.809 c 0,1.152 -0.41,1.473 -1.09,1.473 l -1.93,-1.391 v -6.891 h -2.67 v 9.981 h 2.32 l 0.2,-1.262 c 0.82,1 1.77,1.563 3.05,1.563 1.76,0 2.79,-1.133 2.79,-3.012"
       style="fill:#295cb3;fill-opacity:1;fill-rule:nonzero;stroke:none"
       transform="matrix(0.03527778,0,0,-0.03527778,-243.75253,25.03276)"
       clip-path="url(#clipPath116)" />
    <path
       id="path117"
       d="m 6957.5,140.199 c 0,1.5 -0.51,2.481 -1.79,2.481 -1.05,0 -1.71,-0.711 -1.84,-2.598 h 3.63 z m 2.6,-1.797 h -6.23 c 0.19,-1.91 1.09,-2.48 2.37,-2.48 l 2.43,0.867 1.11,-1.508 c -0.97,-0.789 -2.22,-1.359 -3.78,-1.359 -3.2,0 -4.88,2.109 -4.88,5.238 0,3.012 1.62,5.352 4.54,5.352 2.82,0 4.5,-1.891 4.5,-5.071 l -0.06,-1.039"
       style="fill:#295cb3;fill-opacity:1;fill-rule:nonzero;stroke:none"
       transform="matrix(0.03527778,0,0,-0.03527778,-243.75253,25.03276)"
       clip-path="url(#clipPath118)" />
    <path
       id="path119"
       d="m 6972.49,140.199 c 0,1.5 -0.51,2.481 -1.79,2.481 -1.06,0 -1.72,-0.711 -1.85,-2.598 h 3.64 z m -3.67,5.813 -0.76,1.379 4.03,2.41 1.06,-2.051 z m 6.27,-7.61 h -6.24 c 0.19,-1.91 1.09,-2.48 2.37,-2.48 l 2.44,0.867 1.11,-1.508 c -0.98,-0.789 -2.22,-1.359 -3.79,-1.359 -3.2,0 -4.88,2.109 -4.88,5.238 0,3.012 1.62,5.352 4.54,5.352 2.83,0 4.5,-1.891 4.5,-5.071 l -0.05,-1.039"
       style="fill:#295cb3;fill-opacity:1;fill-rule:nonzero;stroke:none"
       transform="matrix(0.03527778,0,0,-0.03527778,-243.75253,25.03276)"
       clip-path="url(#clipPath120)" />
    <path
       id="path121"
       d="m 6984.57,143.301 -1.17,-1.582 -1.96,0.722 c -1.34,0 -2.13,-0.961 -2.13,-3.281 0,-2.32 0.85,-3.09 2.11,-3.09 l 1.98,0.7 1.17,-1.68 c -0.9,-0.731 -1.96,-1.168 -3.28,-1.168 -2.98,0 -4.8,2.039 -4.8,5.219 0,3.16 1.84,5.371 4.76,5.371 1.34,0 2.38,-0.403 3.32,-1.211"
       style="fill:#295cb3;fill-opacity:1;fill-rule:nonzero;stroke:none"
       transform="matrix(0.03527778,0,0,-0.03527778,-243.75253,25.03276)"
       clip-path="url(#clipPath122)" />
    <path
       id="path123"
       d="m 6988.28,139.219 c 0,-2.297 0.68,-3.297 2,-3.297 1.32,0 2,1.019 2,3.297 0,2.301 -0.68,3.293 -1.98,3.293 -1.34,0 -2.02,-1.012 -2.02,-3.293 m 6.79,0 c 0,-3.168 -1.8,-5.297 -4.79,-5.297 -2.97,0 -4.79,1.98 -4.79,5.297 0,3.183 1.8,5.293 4.81,5.293 2.97,0 4.77,-1.981 4.77,-5.293"
       style="fill:#295cb3;fill-opacity:1;fill-rule:nonzero;stroke:none"
       transform="matrix(0.03527778,0,0,-0.03527778,-243.75253,25.03276)"
       clip-path="url(#clipPath124)" />
    <path
       id="path125"
       d="m 6997.01,136.641 v 11.539 l 2.67,0.308 v -11.777 l 0.55,-0.66 0.53,0.109 0.55,-1.898 -1.72,-0.34 c -1.62,0 -2.58,0.98 -2.58,2.719"
       style="fill:#295cb3;fill-opacity:1;fill-rule:nonzero;stroke:none"
       transform="matrix(0.03527778,0,0,-0.03527778,-243.75253,25.03276)"
       clip-path="url(#clipPath126)" />
    <path
       id="path127"
       d="m 7008.47,140.199 c 0,1.5 -0.51,2.481 -1.79,2.481 -1.06,0 -1.71,-0.711 -1.85,-2.598 h 3.64 z m 2.6,-1.797 h -6.24 c 0.19,-1.91 1.09,-2.48 2.37,-2.48 l 2.44,0.867 1.11,-1.508 c -0.98,-0.789 -2.22,-1.359 -3.79,-1.359 -3.2,0 -4.88,2.109 -4.88,5.238 0,3.012 1.62,5.352 4.54,5.352 2.83,0 4.5,-1.891 4.5,-5.071 l -0.05,-1.039"
       style="fill:#295cb3;fill-opacity:1;fill-rule:nonzero;stroke:none"
       transform="matrix(0.03527778,0,0,-0.03527778,-243.75253,25.03276)"
       clip-path="url(#clipPath128)" />
    <path
       id="path129"
       d="m 7023.64,137.129 v 4.461 l -1.73,0.941 c -1.17,0 -1.96,-0.98 -1.96,-3.32 0,-2.5 0.71,-3.289 1.79,-3.289 l 1.9,1.207 m 2.67,11.051 v -13.961 h -2.35 l -0.15,1.23 c -0.61,-0.867 -1.53,-1.527 -2.86,-1.527 -2.51,0 -3.79,2.109 -3.79,5.289 0,3.098 1.58,5.301 4.05,5.301 1.02,0 1.83,-0.41 2.43,-1 v 4.968"
       style="fill:#295cb3;fill-opacity:1;fill-rule:nonzero;stroke:none"
       transform="matrix(0.03527778,0,0,-0.03527778,-243.75253,25.03276)"
       clip-path="url(#clipPath130)" />
    <path
       id="path131"
       d="m 7034.74,140.199 c 0,1.5 -0.51,2.481 -1.79,2.481 -1.05,0 -1.71,-0.711 -1.84,-2.598 h 3.63 z m 2.6,-1.797 h -6.23 c 0.18,-1.91 1.09,-2.48 2.37,-2.48 l 2.43,0.867 1.11,-1.508 c -0.98,-0.789 -2.22,-1.359 -3.79,-1.359 -3.2,0 -4.88,2.109 -4.88,5.238 0,3.012 1.62,5.352 4.55,5.352 2.82,0 4.5,-1.891 4.5,-5.071 l -0.06,-1.039"
       style="fill:#295cb3;fill-opacity:1;fill-rule:nonzero;stroke:none"
       transform="matrix(0.03527778,0,0,-0.03527778,-243.75253,25.03276)"
       clip-path="url(#clipPath132)" />
    <path
       id="path133"
       d="m 7352.13,18.1992 h -398.37 c -24.33,0 -44.24,19.9102 -44.24,44.2422 v 0.5703 c 0,24.3281 19.91,44.2263 44.24,44.2263 h 398.37 c 24.33,0 44.24,-19.8982 44.24,-44.2263 v -0.5703 c 0,-24.332 -19.91,-44.2422 -44.24,-44.2422"
       style="fill:#295cb3;fill-opacity:1;fill-rule:nonzero;stroke:none"
       transform="matrix(0.03527778,0,0,-0.03527778,-243.75253,25.03276)"
       clip-path="url(#clipPath134)" />
    <path
       id="path135"
       d="m 6945.14,62.7305 c 0,-14.7383 11.98,-26.7188 26.71,-26.7188 7.01,0 12.54,2.6406 16.42,5.668 l -5.63,6.2891 c -3.1,-2.2266 -6.72,-3.4883 -10.79,-3.4883 -10.06,0 -18.24,8.1797 -18.24,18.25 0,10.0508 8.18,18.2383 18.24,18.2383 2.6,0 5.07,-0.5586 7.31,-1.5469 l 3.36,7.7773 c -3.27,1.4297 -6.88,2.2422 -10.67,2.2422 -14.73,0 -26.71,-11.9922 -26.71,-26.7109"
       style="fill:#ffffff;fill-opacity:1;fill-rule:nonzero;stroke:none"
       transform="matrix(0.03527778,0,0,-0.03527778,-243.75253,25.03276)"
       clip-path="url(#clipPath136)" />
    <path
       id="path137"
       d="m 6957.61,62.7305 c 0,-7.8594 6.39,-14.2422 14.24,-14.2422 3.01,0 6.05,1.0703 8,2.5312 l -5.75,6.4102 -2.25,-0.4688 c -3.18,0 -5.77,2.5782 -5.77,5.7696 0,3.1718 2.61,5.8398 5.79,5.8398 l 2.34,-0.5 3.35,7.6719 c -1.7,0.707 -3.59,1.2187 -5.71,1.2187 -7.85,0 -14.24,-6.3789 -14.24,-14.2304"
       style="fill:#ffffff;fill-opacity:1;fill-rule:nonzero;stroke:none"
       transform="matrix(0.03527778,0,0,-0.03527778,-243.75253,25.03276)"
       clip-path="url(#clipPath138)" />
    <path
       id="path139"
       d="m 6982.47,68.2617 c 0.73,-1.4531 1.37,-3.4297 1.37,-5.5429 0,-2.6563 -1.13,-5.5586 -2.63,-7.4766 l 5.72,-6.3008 c 3.18,3.4102 5.38,8.3477 5.38,13.7774 0,3.2226 -0.81,6.4531 -2.15,9.121"
       style="fill:#ffffff;fill-opacity:1;fill-rule:nonzero;stroke:none"
       transform="matrix(0.03527778,0,0,-0.03527778,-243.75253,25.03276)"
       clip-path="url(#clipPath140)" />
    <path
       id="path141"
       d="m 6980.1,71.4219 14.5,6.7969 c -2.14,3.1523 -5.07,6.0234 -8.05,7.832 l -6.5,-14.5899"
       style="fill:#ffffff;fill-opacity:1;fill-rule:nonzero;stroke:none"
       transform="matrix(0.03527778,0,0,-0.03527778,-243.75253,25.03276)"
       clip-path="url(#clipPath142)" />
    <path
       id="path143"
       d="m 7027.97,85.7188 -2.33,-2.7696 c -1.16,0.9024 -2.32,1.4297 -3.72,1.4297 -2.66,0 -4.51,-2.1172 -4.51,-7.1875 0,-4.9805 1.82,-7.1016 4.57,-7.1016 1.64,0 2.83,0.75 4.05,1.6719 l 2.18,-2.8125 c -1.37,-1.3672 -3.61,-2.6484 -6.47,-2.6484 -5.67,0 -9.46,3.8203 -9.46,10.8906 0,6.918 4.03,10.8008 9.4,10.8008 2.68,0 4.56,-0.8008 6.29,-2.2734"
       style="fill:#ffffff;fill-opacity:1;fill-rule:nonzero;stroke:none"
       transform="matrix(0.03527778,0,0,-0.03527778,-243.75253,25.03276)"
       clip-path="url(#clipPath144)" />
    <path
       id="path145"
       d="m 7044.83,85.7188 -2.33,-2.7696 c -1.16,0.9024 -2.32,1.4297 -3.72,1.4297 -2.66,0 -4.51,-2.1172 -4.51,-7.1875 0,-4.9805 1.82,-7.1016 4.57,-7.1016 1.64,0 2.83,0.75 4.05,1.6719 l 2.18,-2.8125 c -1.37,-1.3672 -3.61,-2.6484 -6.47,-2.6484 -5.67,0 -9.46,3.8203 -9.46,10.8906 0,6.918 4.03,10.8008 9.4,10.8008 2.68,0 4.56,-0.8008 6.29,-2.2734"
       style="fill:#ffffff;fill-opacity:1;fill-rule:nonzero;stroke:none"
       transform="matrix(0.03527778,0,0,-0.03527778,-243.75253,25.03276)"
       clip-path="url(#clipPath146)" />
    <path
       id="path147"
       d="m 7046.95,66.8086 h 4.9023 v 20.6836 h -4.9023 z"
       style="fill:#ffffff;fill-opacity:1;fill-rule:nonzero;stroke:none"
       transform="matrix(0.03527778,0,0,-0.03527778,-243.75253,25.03276)"
       clip-path="url(#clipPath148)" />
    <path
       id="path149"
       d="m 7072.44,80.7422 c 0,2.207 -1.23,3.2578 -3.64,3.2578 h -1.73 v -6.7812 h 1.82 c 2.2,0 3.55,0.9218 3.55,3.5234 m 5.04,0 c 0,-4.8008 -3.4,-7.043 -8.18,-7.043 h -2.23 v -6.8906 h -4.9 v 20.6836 h 6.69 c 5.34,0 8.62,-2.2109 8.62,-6.75"
       style="fill:#ffffff;fill-opacity:1;fill-rule:nonzero;stroke:none"
       transform="matrix(0.03527778,0,0,-0.03527778,-243.75253,25.03276)"
       clip-path="url(#clipPath150)" />
    <path
       id="path151"
       d="m 7088.76,74.8008 -2.17,9.1289 -2.19,-9.1289 z m 0.83,-3.5391 h -6.02 l -1.05,-4.4531 h -5.07 l 6.24,20.6836 h 5.94 l 6.23,-20.6836 h -5.19"
       style="fill:#ffffff;fill-opacity:1;fill-rule:nonzero;stroke:none"
       transform="matrix(0.03527778,0,0,-0.03527778,-243.75253,25.03276)"
       clip-path="url(#clipPath152)" />
    <path
       id="path153"
       d="m 7101.98,78.0898 h 2.06 c 2.15,0 3.28,0.9219 3.28,3.1016 0,2 -1.16,2.8594 -3.58,2.8594 h -1.76 z m 1.91,-3.371 h -1.91 v -7.9102 h -4.89 v 20.6836 h 6.77 c 5.61,0 8.5,-2 8.5,-6.3008 0,-2.7109 -1.28,-4.3594 -3.96,-5.582 l 5.25,-8.8008 h -5.52"
       style="fill:#ffffff;fill-opacity:1;fill-rule:nonzero;stroke:none"
       transform="matrix(0.03527778,0,0,-0.03527778,-243.75253,25.03276)"
       clip-path="url(#clipPath154)" />
    <path
       id="path155"
       d="m 7115.2,66.8086 h 4.9023 V 87.4922 H 7115.2 Z"
       style="fill:#ffffff;fill-opacity:1;fill-rule:nonzero;stroke:none"
       transform="matrix(0.03527778,0,0,-0.03527778,-243.75253,25.03276)"
       clip-path="url(#clipPath156)" />
    <path
       id="path157"
       d="m 7137.46,85.3398 -2.27,-2.6601 c -1.43,1.1601 -2.86,1.7305 -4.53,1.7305 -1.7,0 -2.78,-0.7188 -2.78,-2.0313 0,-1.3086 0.78,-1.8476 4,-2.8594 3.91,-1.2578 6.15,-2.8672 6.15,-6.6797 0,-3.8593 -3.05,-6.539 -8.21,-6.539 -3.58,0 -6.14,1.3086 -7.84,2.9492 l 2.47,2.7188 c 1.53,-1.2774 3.16,-2.0274 5.22,-2.0274 2.03,0 3.29,0.9609 3.29,2.5274 0,1.5312 -0.78,2.2109 -3.79,3.1406 -4.63,1.4297 -6.33,3.3398 -6.33,6.4101 0,3.6407 3.16,5.9727 7.46,5.9727 3.16,0 5.34,-0.9219 7.16,-2.6524"
       style="fill:#ffffff;fill-opacity:1;fill-rule:nonzero;stroke:none"
       transform="matrix(0.03527778,0,0,-0.03527778,-243.75253,25.03276)"
       clip-path="url(#clipPath158)" />
    <path
       id="path159"
       d="m 7147.19,66.8086 h 4.8984 v 20.6836 h -4.8984 z"
       style="fill:#ffffff;fill-opacity:1;fill-rule:nonzero;stroke:none"
       transform="matrix(0.03527778,0,0,-0.03527778,-243.75253,25.03276)"
       clip-path="url(#clipPath160)" />
    <path
       id="path161"
       d="m 7160.53,70.6914 h 8.06 l -0.51,-3.8828 h -12.44 v 20.6719 h 4.89"
       style="fill:#ffffff;fill-opacity:1;fill-rule:nonzero;stroke:none"
       transform="matrix(0.03527778,0,0,-0.03527778,-243.75253,25.03276)"
       clip-path="url(#clipPath162)" />
    <path
       id="path163"
       d="m 7182.82,83.9922 h -7.28 v -4.9531 h 6.36 v -3.4297 h -6.36 V 70.332 h 7.79 v -3.5234 h -12.68 v 20.6719 h 12.68"
       style="fill:#ffffff;fill-opacity:1;fill-rule:nonzero;stroke:none"
       transform="matrix(0.03527778,0,0,-0.03527778,-243.75253,25.03276)"
       clip-path="url(#clipPath164)" />
    <path
       id="path165"
       d="m 7185.42,74.332 h 9.5078 v 3.63672 h -9.5078 z"
       style="fill:#ffffff;fill-opacity:1;fill-rule:nonzero;stroke:none"
       transform="matrix(0.03527778,0,0,-0.03527778,-243.75253,25.03276)"
       clip-path="url(#clipPath166)" />
    <path
       id="path167"
       d="M 7202.79,83.9297 V 70.3594 h 1.61 c 2.95,0 4.92,1.4023 4.92,6.8906 0,5.5508 -2.12,6.6797 -4.98,6.6797 z m 11.6,-6.6797 c 0,-8.3203 -5.01,-10.4414 -10.29,-10.4414 h -6.21 v 20.6836 h 5.76 c 5.52,0 10.74,-1.7109 10.74,-10.2422"
       style="fill:#ffffff;fill-opacity:1;fill-rule:nonzero;stroke:none"
       transform="matrix(0.03527778,0,0,-0.03527778,-243.75253,25.03276)"
       clip-path="url(#clipPath168)" />
    <path
       id="path169"
       d="m 7229.19,83.9922 h -7.28 v -4.9531 h 6.36 v -3.4297 h -6.36 V 70.332 h 7.79 v -3.5234 h -12.68 v 20.6719 h 12.68"
       style="fill:#ffffff;fill-opacity:1;fill-rule:nonzero;stroke:none"
       transform="matrix(0.03527778,0,0,-0.03527778,-243.75253,25.03276)"
       clip-path="url(#clipPath170)" />
    <path
       id="path171"
       d="m 7231.79,74.332 h 9.5195 v 3.63672 h -9.5195 z"
       style="fill:#ffffff;fill-opacity:1;fill-rule:nonzero;stroke:none"
       transform="matrix(0.03527778,0,0,-0.03527778,-243.75253,25.03276)"
       clip-path="url(#clipPath172)" />
    <path
       id="path173"
       d="m 7244.26,87.4805 h 12.33 L 7256.08,84 h -6.92 v -5.5 h 6.03 v -3.4883 h -6.03 v -8.2031 h -4.9"
       style="fill:#ffffff;fill-opacity:1;fill-rule:nonzero;stroke:none"
       transform="matrix(0.03527778,0,0,-0.03527778,-243.75253,25.03276)"
       clip-path="url(#clipPath174)" />
    <path
       id="path175"
       d="m 7263.39,78.0898 h 2.06 c 2.15,0 3.28,0.9219 3.28,3.1016 0,2 -1.16,2.8594 -3.58,2.8594 h -1.76 z m 1.91,-3.371 h -1.91 v -7.9102 h -4.89 v 20.6836 h 6.77 c 5.61,0 8.51,-2 8.51,-6.3008 0,-2.7109 -1.29,-4.3594 -3.97,-5.582 l 5.25,-8.8008 h -5.52"
       style="fill:#ffffff;fill-opacity:1;fill-rule:nonzero;stroke:none"
       transform="matrix(0.03527778,0,0,-0.03527778,-243.75253,25.03276)"
       clip-path="url(#clipPath176)" />
    <path
       id="path177"
       d="m 7285.59,74.8008 -2.17,9.1289 -2.18,-9.1289 z m 0.84,-3.5391 h -6.03 l -1.04,-4.4531 h -5.07 l 6.23,20.6836 h 5.94 l 6.23,-20.6836 h -5.19"
       style="fill:#ffffff;fill-opacity:1;fill-rule:nonzero;stroke:none"
       transform="matrix(0.03527778,0,0,-0.03527778,-243.75253,25.03276)"
       clip-path="url(#clipPath178)" />
    <path
       id="path179"
       d="m 7309.85,66.8086 h -6.23 l -5.97,16.0234 c 0.24,-1.8828 0.63,-4.6211 0.63,-8.4531 v -7.5703 h -4.36 v 20.6836 h 6.09 l 6.11,-16.0625 c -0.26,1.6719 -0.65,4.3906 -0.65,7.6992 v 8.3633 h 4.38"
       style="fill:#ffffff;fill-opacity:1;fill-rule:nonzero;stroke:none"
       transform="matrix(0.03527778,0,0,-0.03527778,-243.75253,25.03276)"
       clip-path="url(#clipPath180)" />
    <path
       id="path181"
       d="m 7328.14,85.7188 -2.32,-2.7696 c -1.16,0.9024 -2.33,1.4297 -3.73,1.4297 -2.66,0 -4.51,-2.1172 -4.51,-7.1875 0,-4.9805 1.82,-7.1016 4.57,-7.1016 1.64,0 2.83,0.75 4.05,1.6719 l 2.19,-2.8125 c -1.38,-1.3672 -3.61,-2.6484 -6.48,-2.6484 -5.67,0 -9.46,3.8203 -9.46,10.8906 0,6.918 4.03,10.8008 9.4,10.8008 2.68,0 4.57,-0.8008 6.29,-2.2734"
       style="fill:#ffffff;fill-opacity:1;fill-rule:nonzero;stroke:none"
       transform="matrix(0.03527778,0,0,-0.03527778,-243.75253,25.03276)"
       clip-path="url(#clipPath182)" />
    <path
       id="path183"
       d="m 7342.44,83.9922 h -7.28 v -4.9531 h 6.36 v -3.4297 h -6.36 V 70.332 h 7.79 v -3.5234 h -12.68 v 20.6719 h 12.68"
       style="fill:#ffffff;fill-opacity:1;fill-rule:nonzero;stroke:none"
       transform="matrix(0.03527778,0,0,-0.03527778,-243.75253,25.03276)"
       clip-path="url(#clipPath184)" />
    <path
       id="path185"
       d="m 7025.41,55.7188 h -7.28 v -4.9493 h 6.35 v -3.4297 h -6.35 v -5.2812 h 7.78 v -3.5273 h -12.68 v 20.6796 h 12.68"
       style="fill:#ffffff;fill-opacity:1;fill-rule:nonzero;stroke:none"
       transform="matrix(0.03527778,0,0,-0.03527778,-243.75253,25.03276)"
       clip-path="url(#clipPath186)" />
    <path
       id="path187"
       d="M 7033.52,55.6602 V 42.0898 h 1.62 c 2.95,0 4.92,1.3985 4.92,6.8907 0,5.5508 -2.12,6.6797 -4.99,6.6797 z m 11.61,-6.6797 c 0,-8.3321 -5.01,-10.4414 -10.29,-10.4414 h -6.21 v 20.6718 h 5.76 c 5.52,0 10.74,-1.6992 10.74,-10.2304"
       style="fill:#ffffff;fill-opacity:1;fill-rule:nonzero;stroke:none"
       transform="matrix(0.03527778,0,0,-0.03527778,-243.75253,25.03276)"
       clip-path="url(#clipPath188)" />
    <path
       id="path189"
       d="m 7063.6,45.4023 c 0,-4.1835 -2.68,-7.371 -8.08,-7.371 -5.4,0 -8.06,3.0078 -8.06,7.371 v 13.8086 h 4.89 V 45.6094 c 0,-2.6602 0.96,-3.9375 3.17,-3.9375 2.23,0 3.19,1.2773 3.19,3.9375 v 13.6015 h 4.89"
       style="fill:#ffffff;fill-opacity:1;fill-rule:nonzero;stroke:none"
       transform="matrix(0.03527778,0,0,-0.03527778,-243.75253,25.03276)"
       clip-path="url(#clipPath190)" />
    <path
       id="path191"
       d="m 7081.63,57.4492 -2.33,-2.7695 c -1.16,0.8906 -2.33,1.4297 -3.73,1.4297 -2.65,0 -4.5,-2.1172 -4.5,-7.1875 0,-4.9805 1.82,-7.1016 4.56,-7.1016 1.64,0 2.83,0.7422 4.06,1.668 l 2.18,-2.8086 c -1.38,-1.3711 -3.62,-2.6484 -6.48,-2.6484 -5.67,0 -9.46,3.8203 -9.46,10.8906 0,6.9179 4.03,10.7969 9.4,10.7969 2.69,0 4.56,-0.7969 6.3,-2.2696"
       style="fill:#ffffff;fill-opacity:1;fill-rule:nonzero;stroke:none"
       transform="matrix(0.03527778,0,0,-0.03527778,-243.75253,25.03276)"
       clip-path="url(#clipPath192)" />
    <path
       id="path193"
       d="m 7092.73,46.5313 -2.18,9.1289 -2.18,-9.1289 z m 0.83,-3.5508 h -6.02 l -1.05,-4.4414 h -5.07 l 6.24,20.6718 h 5.93 l 6.24,-20.6718 h -5.19"
       style="fill:#ffffff;fill-opacity:1;fill-rule:nonzero;stroke:none"
       transform="matrix(0.03527778,0,0,-0.03527778,-243.75253,25.03276)"
       clip-path="url(#clipPath194)" />
    <path
       id="path195"
       d="m 7114.72,55.4492 h -5.1 V 38.5391 h -4.9 v 16.9101 h -5.33 v 3.7617 h 15.81"
       style="fill:#ffffff;fill-opacity:1;fill-rule:nonzero;stroke:none"
       transform="matrix(0.03527778,0,0,-0.03527778,-243.75253,25.03276)"
       clip-path="url(#clipPath196)" />
    <path
       id="path197"
       d="m 7116.87,38.5391 h 4.8984 v 20.6797 h -4.8984 z"
       style="fill:#ffffff;fill-opacity:1;fill-rule:nonzero;stroke:none"
       transform="matrix(0.03527778,0,0,-0.03527778,-243.75253,25.03276)"
       clip-path="url(#clipPath198)" />
    <path
       id="path199"
       d="m 7129.49,48.8906 c 0,-5.25 1.5,-7.2812 4.18,-7.2812 2.81,0 4.21,2.0312 4.21,7.2812 0,5.2188 -1.44,7.25 -4.21,7.25 -2.75,0 -4.18,-2.0312 -4.18,-7.25 m 13.52,0 c 0,-6.7695 -3.49,-10.8593 -9.34,-10.8593 -5.82,0 -9.31,3.9687 -9.31,10.8593 0,6.7383 3.49,10.8282 9.31,10.8282 5.85,0 9.34,-3.9375 9.34,-10.8282"
       style="fill:#ffffff;fill-opacity:1;fill-rule:nonzero;stroke:none"
       transform="matrix(0.03527778,0,0,-0.03527778,-243.75253,25.03276)"
       clip-path="url(#clipPath200)" />
    <path
       id="path201"
       d="m 7161.57,38.5391 h -6.24 l -5.96,16.0195 c 0.24,-1.8789 0.63,-4.6289 0.63,-8.4492 v -7.5703 h -4.36 v 20.6718 h 6.08 l 6.12,-16.0507 c -0.27,1.6718 -0.65,4.3906 -0.65,7.6992 v 8.3515 h 4.38"
       style="fill:#ffffff;fill-opacity:1;fill-rule:nonzero;stroke:none"
       transform="matrix(0.03527778,0,0,-0.03527778,-243.75253,25.03276)"
       clip-path="url(#clipPath202)" />
  </g>
</svg>
